<svg version="1.2" xmlns="http://www.w3.org/2000/svg" viewBox="0 0 548 756" width="548" height="756">
	<title>15-svg</title>
	<defs>
		<clipPath clipPathUnits="userSpaceOnUse" id="cp1">
			<path d="m61 119h322v307h-322z"/>
		</clipPath>
		<clipPath clipPathUnits="userSpaceOnUse" id="cp2">
			<path d="m-40.13 161.12l560.82-227.64 257.25 633.78-560.81 227.64z"/>
		</clipPath>
		<clipPath clipPathUnits="userSpaceOnUse" id="cp3">
			<path d="m-40.13 161.12l560.82-227.64 257.25 633.78-560.81 227.64z"/>
		</clipPath>
		<clipPath clipPathUnits="userSpaceOnUse" id="cp4">
			<path d="m-40.13 161.12l560.82-227.64 257.25 633.78-560.81 227.64z"/>
		</clipPath>
		<clipPath clipPathUnits="userSpaceOnUse" id="cp5">
			<path d="m0-1h548v539h-548z"/>
		</clipPath>
		<clipPath clipPathUnits="userSpaceOnUse" id="cp6">
			<path d="m-40.13 161.12l560.82-227.64 257.25 633.78-560.81 227.64z"/>
		</clipPath>
		<clipPath clipPathUnits="userSpaceOnUse" id="cp7">
			<path d="m-40.13 161.12l560.82-227.64 257.25 633.78-560.81 227.64z"/>
		</clipPath>
		<clipPath clipPathUnits="userSpaceOnUse" id="cp8">
			<path d="m-40.13 161.12l560.82-227.64 257.25 633.78-560.81 227.64z"/>
		</clipPath>
		<clipPath clipPathUnits="userSpaceOnUse" id="cp9">
			<path d="m295 399h118v357h-118z"/>
		</clipPath>
		<clipPath clipPathUnits="userSpaceOnUse" id="cp10">
			<path d="m-40.13 161.12l560.82-227.64 257.25 633.78-560.81 227.64z"/>
		</clipPath>
		<clipPath clipPathUnits="userSpaceOnUse" id="cp11">
			<path d="m-40.13 161.12l560.82-227.64 257.25 633.78-560.81 227.64z"/>
		</clipPath>
		<clipPath clipPathUnits="userSpaceOnUse" id="cp12">
			<path d="m-40.13 161.12l560.82-227.64 257.25 633.78-560.81 227.64z"/>
		</clipPath>
	</defs>
	<g id="Clip-Path" clip-path="url(#cp1)">
		<g id="Layer">
			<g id="Clip-Path" clip-path="url(#cp2)">
				<g id="Layer">
					<g id="Clip-Path" clip-path="url(#cp3)">
						<g id="Layer">
							<g id="Clip-Path" clip-path="url(#cp4)">
								<g id="Layer">
									<path id="Layer" fill-rule="evenodd" class="s0" d="m137.8 201.8c-15.7-12.5-30.8-22.8-48.1-37.8-2.8-2.5-6.4-6.6-9.9-11.1-5-6.3-9.9-13.4-12.6-17.9-1-1.4-1.8-3-2.6-4.5-0.8-1.5-1.5-3.1-2.1-4.7-0.2-0.6-0.8-1.7-1.1-2.5-0.3-0.7-0.4-1.4-0.4-1.7 0-1.1 0.6-1.6 1.3-2 0.4-0.2 1.4-0.6 2.6 0.2 7.5 4.8 14.5 10.1 21.4 15.6 15.9 12.8 30.6 27 46.9 39.1 16.9 12.4 33.5 22.4 50.1 32.4 11.4 6.8 22.7 13.6 34.1 21 2.6 1.7 5.2 3.4 7.7 5.2 0.5-0.6 1.2-0.6 1.7-0.6 0.3 0.1 1.5 1.1 1.5 1.1 0 0-0.1-0.1-0.1-0.2 1 1.1 2 2.1 3.1 3.1 1.1 1 2.2 2 3.3 2.9q4.1 3.3 8.5 6.1c2.9 1.9 5.9 3.6 9 5.3 5.9 3.1 11.8 5.9 17.5 9.2 3.8 2.2 7.6 4.6 11.1 7.4 5.1 4 19.1 21.3 31.7 30.9l0.3 0.2q1.4-0.4 2.8-0.4c2.7-0.1 5.4 0.5 8.3 1.9 0.5 0.2 3.9 2.6 5.2 3.6 1.5 1 0.4 2.8 0.3 2.9-4.2 2.2-10.5 0-17.1-4.6q-1.5 0.5-3 1.7c-5 3.7-8.8 9.6-10.7 16-1.9 6.3-1.9 13.2 0.8 18.9 4.5 9.2 12.5 15.4 21.9 19.3 9.3 4 20 5.6 29.6 5.5 7.1 0.1 14.3-0.6 21.5-0.8 1.8 0 3.6-0.1 5.4 0 0.5 0 1.2-0.3 1.7-0.2 0.4 0.1 0.8 0.3 1.1 0.8 4.3 6.6 0.9 17-5.7 27.2-8.7 13.4-22.8 26.5-29.4 30.1l-2.6 1.3c-1.8 0.8-3.6 1.7-5.5 2.3q-1.9 0.7-3.9 1c-6.3 1-9.6-1.3-11.4-4.7-2.2-4.1-1.9-10.3-2.2-14.1q-0.1-0.7-0.2-1.2-0.4 0.2-0.9 0.5c-4.2 3.1-13.3 10.1-22.2 11-3.9 0.4-7.8-0.4-11.3-2.9-1.9-1.3-3.7-3.1-5.3-5.6-2.3-3.7-1.4-7.9 1.3-11.9q-1 0-2 0.1c-8.8 0.3-17.3-1.6-22.2-5.1-3.4-2.5-5.2-5.7-4.7-9.6 0.2-0.8 0.8-1.8 1.6-2.7 1.2-1.4 3.2-2.9 3.9-3.6 1.7-1.4 3.5-2.7 5.5-3.8-6.2-0.7-12.9-2.5-18.5-5.3-7.7-3.7-13.4-9.4-13.9-16.9-0.1-1.7 0.7-3.1 2.5-4 0.1-0.1 0.3-0.2 0.5-0.3-9-4.9-17-11.3-19.7-17.8-0.3-0.6-1.4-3-1.7-4.5-0.2-1.2 0-2 0.4-2.5 1.1-1.5 3.2-2.5 6-3 3.4-0.6 8-0.5 13.1 0-7.6-3.7-14.8-7.7-21.7-12.2-10-6.6-19.4-14-28.8-22.3-7-6.2-12.2-10.7-14.7-12.9-0.7-0.6-1.2-1.1-1.4-1.3-1.2-1-0.5-2.3-0.5-2.3 0.1-0.2 0.7-0.9 1.8-0.8 0.2-0.1 0.7 0 1.2 0.1q-0.2 0-0.3 0.2c-0.1 0.1 0 0.1 0.1 0.1l0.4 0.4c0-0.4 0-0.7-0.2-0.7-9.1-4.6-18.8-9.8-27.1-14.8-8.1-5-14.9-9.7-18.5-13.5-2.2-2.3-3.2-4.5-3.1-6.2 0.1-1 0.6-1.5 1.2-1.7 0.4-0.2 0.9-0.3 1.5-0.1 0.4 0.1 1.2 0.7 1.6 0.9l26.2 11.3c3.4 1.5 8.1 3.4 13.3 5.4-6.4-5.2-29.8-23.8-46.7-38.5-1.9-1.6-3.7-3.3-5.4-4.8-5.6-4.9-10.1-8.9-12.3-11.6-1.1-1.3-1.6-2.4-1.7-3.1-0.2-1 0.2-1.6 0.4-1.9 0.5-0.5 1-0.8 1.8-0.7 0.3-0.1 0.7 0 1.2 0.3 0.6 0.4 1.5 1.3 2 1.6l8.8 5c3 1.6 6.1 3.1 9.1 4.6 4.6 2.2 9.3 4.3 14 6.4 3.8 1.7 8.1 3.5 12.7 5.3-3.1-2.6-6.1-5.1-9.1-7.5zm30.1 63.6q0 0 0 0 0 0 0 0 0 0 0 0zm-99.7-137.8l0.5 1c0.7 1.4 1.3 2.8 2.1 4.2 2.3 3.8 6 9.4 10.1 14.8 4 5.3 8.3 10.4 11.6 13.2 17.2 15 32.2 25.2 47.9 37.6 6.1 4.8 12.3 10 18.7 15.8 6.2 2.6 12.4 5.5 18.1 8.9 5.8 3.5 10.9 7.5 15 12.1 2.9 3.3 5.3 7 6.9 11.1 0.5 1.2 0.1 1.9-0.2 2.3-0.4 0.6-1 1-1.9 1-0.4 0-1.1-0.2-1.9-0.7-0.9-0.6-2.3-1.6-3.1-2-1.8-1-3.5-2.1-5.1-3.3-1.7-1.2-3.4-2.4-4.9-3.6-3.5-2.6-6.8-5.4-10.1-8.3-4.8-4.3-9.5-8.7-14.2-13-0.5-0.4-0.9-0.8-1.3-1.2-8.6-3.5-17.1-6.5-23.9-9.6-4.6-2.2-9.3-4.3-14-6.5q-4.7-2.3-9.2-4.7l-1.3-0.7c1.6 1.5 3.3 3.2 5.3 4.9 1.6 1.5 3.4 3.1 5.3 4.7 17.7 15.3 42.5 34.9 47.5 38.9 3.2 2.5 6.5 5 9.9 7.3 3.5 1.4 6.9 2.9 10.1 4.4 6.3 2.9 11.7 5.9 14.8 8.7 0.6 0.7 0.7 1.2 0.8 1.4 0.1 0.9-0.3 2.4-2.4 2-0.9-0.2-4.3-1.8-5.7-2.4q-1.8-0.8-3.7-1.7c-1.2-0.6-2.4-1.2-3.6-1.8-4-2.1-7.8-4.5-11.6-7q-0.7-0.5-1.4-1c-9.5-3.9-19.2-7.3-24.9-9.8l-23.3-9.8c3.4 3.6 9.8 8.2 17.5 12.9 13.7 8.3 31.4 17.3 43.9 23.2q2.5 1 5 2.1l6.7 3c0.6 0.3 2.1 1 2.5 1.2 1.1 0.5 1 1.6 1 1.7-0.1 0.3-0.4 1.6-2 1.3 0 0-0.1-0.1-0.3-0.1-2.4-0.9-8.2-3.4-15.5-7q-2.3-0.7-4.6-1.5-3.5-1.2-7.1-1.9l11.7 10.3c9.3 8.2 18.6 15.5 28.4 22 9.8 6.5 20.2 12 31.7 16.7l0.9 0.4c13.9 2.8 28 7.4 31.6 9.7 0.5 0.3 0.6 0.6 0.7 0.8 0.2 0.6 0 1-0.2 1.4-0.2 0.2-0.5 0.6-1.2 0.6-0.2 0-0.9-0.2-1.2-0.2q-2.6-0.3-5.2-0.9-2.5-0.5-5.1-1.1c-2.9-0.8-5.8-1.8-8.7-2.7-4.3-1.5-8.6-3.2-12.8-4.9-1.3-0.2-2.7-0.5-4-0.7-6.6-1.1-12.8-1.6-17.4-1.2-2.5 0.3-4.6 0.8-5.6 1.9 0.1-0.1 0.3-0.3 0.1-0.3-1.2 0 1.3 3.6 1.5 4.2 2.8 6.7 11.6 13.2 21.1 17.9q1.4-0.2 2.9-0.2c6.4-0.3 14.7 0.9 20 1.9 2.4 0.4 4.2 0.8 5.1 1.1 0.2 0.1 3 1.2 4 1.7 1.3 0.7 1.1 2 1 2.1-0.8 1.8-2.6 2.9-5.2 3.4-4.7 0.8-12.6-0.7-20.7-3.7-2.5-0.9-5-1.9-7.4-3.1q-1.4 0.3-2.4 0.6c-0.8 0.4-1.5 0.7-1.5 1.4 0.4 6.4 5.5 11 12 14.3 6.7 3.4 15 5.3 21.8 5.7q1.7-0.8 3.5-1.4c1.7-0.5 3.4-0.9 5-1.3 0.6-0.1 6-1.3 8.1-1.3 1.3 0 1.9 0.7 2.1 1.1 0.1 0.5-0.2 1.4-1.3 2-2.1 1.2-8.2 3-8.7 3.1-2 0.4-4.4 0.6-7.2 0.6q-1.6 0.8-3.2 1.6c-2.2 1.3-4.4 2.7-6.3 4.4-0.6 0.6-2.1 1.7-3.2 2.8-0.5 0.6-1.1 1.1-1.2 1.5-0.4 2.6 0.9 4.7 3.2 6.4 4.5 3.3 12.2 4.9 20.2 4.7q2.3 0 4.7-0.3c3.5-3.9 8-7.1 10.8-8.7 1.2-0.6 2.3-1.2 3.5-1.6 1-0.4 1.9-0.6 2.8-0.8 1-0.2 1.9-0.5 2.8-0.7 0.5-0.1 1.6-0.6 2.2-0.7 0.4-0.1 0.8 0 1 0.1 0.7 0.3 1.3 0.9 0.7 2.1-3.5 7.2-12.1 11.5-21.5 13q-0.9 1-1.6 2.1c-2 2.9-3.1 5.9-1.5 8.5q1.9 3.2 4.2 5c2.8 2.1 6 2.6 9.1 2.3 8.4-0.7 16.9-7.3 20.8-10.2q1.7-1.2 2.3-1.5c0.7-0.2 1.2-0.1 1.4 0 1 0.4 1.7 2 1.9 4.3 0.3 3.5-0.2 9.2 1.9 13 1.3 2.4 3.9 3.8 8.4 3q1.8-0.2 3.4-0.9c1.8-0.6 3.5-1.3 5.2-2.1l2.4-1.2c6.4-3.5 19.8-16.2 28.3-29.1 5.9-8.9 9.6-17.7 6.3-23.7-0.3 0-0.7 0.1-0.8 0.1-1.8 0-3.6 0.1-5.4 0.2-7.2 0.4-14.4 1.3-21.5 1.4-12.1 0.1-25.8-2.3-36.8-8.5-7.6-4.2-14-10.2-17.8-18.2-3.1-6.5-3.2-14.2-1.1-21.4 2.2-7.1 6.5-13.6 12.2-17.6q1-0.7 2-1.3c-12.3-9.6-25.7-25.9-30.7-29.7-3.4-2.7-7-5-10.7-7.1-5.7-3.2-11.6-6-17.4-9q-4.8-2.5-9.4-5.4c-2.7-1.7-5.4-3.5-7.9-5.6-1.5-0.8-2.9-2-4.4-3l-0.5-0.3c0.9 4.5 4.2 9.7 8.2 14.9 8.1 10.4 19.8 20.3 25.5 23.5l0.4 0.2c6.1 3.5 7.9 5.5 7 6 0.1 1-2.4 0.5-8.2-2.7h-0.1l-0.7-0.4-0.1-0.1h-0.1l-1.1-0.6-6.4-3.6c-3.5-1.9-7.1-3.9-10.9-5.5-2.4-1.1-4.9-2.1-7.4-2.7l-0.4-0.1c-0.3 1.2-0.2 2.5 0.1 3.9 0.5 1.8 1.5 3.7 2.6 5.6 2.8 4.5 6.9 8.8 10.1 11.8 0.4 0.2 0.8 0.3 1.3 0.6 2.5 1.4 5.7 3.1 8.4 5 1.9 1.4 3.7 3 4.9 4.7 0.9 1.2 0.1 2-0.1 2.3-0.3 0.2-0.8 0.6-1.5 0.4-0.2 0-1.1-0.5-1.5-0.6-1.9-0.9-3.7-1.9-5.5-3.1q-2-1.3-3.8-2.7c2.4 3.6 5.7 7.8 7.1 9.3l11.7 11c0.7 0.5 0.8 1.5 0.2 2.3-0.5 0.7-1.5 0.8-2.3 0.2-0.6-0.5-2.7-2.3-4.9-4.4-3-2.8-6.3-5.9-7.2-6.7-2.1-2.3-8.6-10.5-10.1-14.3-0.3-1-0.4-1.7-0.3-2.4-4.1-3.8-9-9.2-11.6-14.5-2-4.3-2.4-8.4-0.4-11.7 0.2-0.2 0.9-1 2.1-0.8 0.6 0.1 1.8 0.4 1.9 0.5 2.8 0.8 5.4 1.8 8 3 0.3 0.2 0.7 0.3 1 0.5-3.7-3.6-7.5-7.6-10.7-11.7-5.5-6.8-9.2-14-9.3-19.8-21.1-13.8-41.8-25.1-62.6-37.8-10.4-6.3-20.7-13.1-31.3-20.8-16.5-12.1-31.3-26.3-47.2-39.2-4.7-3.9-9.8-7.8-15-11.4zm147.6 194.2q0 0.1-0.1 0.1 0 0 0 0.1v-0.1q0.1 0 0.1-0.1zm-0.1 0.2q0 0 0 0zm87.8 61.8q-1.3 0.2-2.5 0.7c-0.8 0.4-1.6 0.8-2.3 1.2-0.8 0.4-1.6 0.8-2.4 1.2-1.6 1-4 2.7-6.3 4.7 5.6-1.5 10.5-4 13.5-7.8zm-58.9-37.4c7.6 3.1 15.1 4.9 20 4.5 1.5-0.1 2.6-0.3 3.4-0.9-1.1-0.5-2.4-1.2-2.6-1.2-0.7-0.3-2-0.7-3.8-1.1-4.3-0.8-10.9-1.4-16.7-1.3zm72-45.3c3.3 2 6.3 3.4 8.8 3.3-1.2-0.8-2.4-1.6-2.7-1.8-2.1-0.9-4.1-1.5-6.1-1.5zm-147.8-78.1c2 1.8 4 3.7 6 5.4 3.2 2.8 6.4 5.5 9.8 8.1 1.6 1.2 3.1 2.4 4.7 3.4 1.1 0.8 2.1 1.4 3.2 2.1q-1.4-2.3-3.2-4.4c-3.8-4.3-8.7-7.9-14.1-11.1-2.1-1.2-4.2-2.4-6.4-3.5z"/>
								</g>
							</g>
						</g>
					</g>
				</g>
			</g>
		</g>
	</g>
	<g id="Clip-Path" clip-path="url(#cp5)">
		<g id="Layer">
			<g id="Clip-Path" clip-path="url(#cp6)">
				<g id="Layer">
					<g id="Clip-Path" clip-path="url(#cp7)">
						<g id="Layer">
							<g id="Clip-Path" clip-path="url(#cp8)">
								<g id="Layer">
									<path id="Layer" fill-rule="evenodd" class="s0" d="m103.6 300.1c-20.7-7.2-42.9-11.3-62.5-21.1-3-1.5-13.1-4.7-22.2-8.2-6.4-2.4-12.3-5.1-15.3-7.6-3-2.4-3.4-5-1.6-7.1 2.6-3 6.4-3.9 10.4-3.9 2.6 0 5.4 0.4 8 0.7 2.2 0.2 4.4 0.4 6.2-0.1 4.6-1.1 12.1-1.1 20.6-0.4 19.4 1.7 44.8 7.1 56 10 16.6 4.4 34 5.5 50.4 10.1 40.3 11.4 78.1 32.4 117.9 44.2 10.3 3.1 22.7 3 32.8 7.3 9.1 3.9 19.5 9.7 30.1 14.5 10.2 4.6 20.8 8.1 30.6 7.5 3.6-0.3 5.9-1.5 7-3.5 1.7-2.9 0.7-7.1-2.1-10.4-8.3-9.6-17.6-11-27.7-16.7-4.2-2.3-8.7-4.2-11.3-8.5-12.7-20.5-16.7-66.8-11.5-90.5 6.3-28.4 25.2-38.3 38.6-43.2 5.3-1.9 9.8-3 11.9-4.2 5-2.9 13.3-4.3 21.4-5.5 7.3-1.2 14.6-2.3 18.4-5.1 13.6-9.9 27.3-20.9 37.9-35 14.1-18.6 27.4-37.7 40.6-57.1 8.8-13 20.3-24.7 29.6-37.5 5-6.9 21.3-24.7 25.3-27.9 0.7-0.6 1.3-0.9 1.5-0.9 0.6-0.2 1.1-0.1 1.5 0.1 0.6 0.3 1.9 1.2 1.1 3.3-0.5 1.6-3.2 6.2-9.3 15.1-3.5 5.2-7.6 10.8-11.7 15.9-13.6 17.4-22.7 38.9-37.2 55.5-1.4 1.4-2.1 3.2-2.9 5-0.8 2.2-1.6 4.4-2.9 6.3-13 20.6-23.3 43.3-36.9 63.2-2.7 4.1-6.5 13.5-11 18.6-2.4 2.7-5.1 4.3-8 4.1q-0.5 0-1.2 0.3c-0.7 0.2-1.5 0.6-2.4 1.1-4.7 2.7-10.8 7.5-14 9.8-1.3 0.8-2.3 1.3-2.7 1.4-0.7 0.2-1.2 0.1-1.6 0-0.5-0.2-1.8-1.1-1.2-3.1 0.7-2.3 6.5-13.1 12.8-21.5-8.4 8.9-17.8 17.7-24.3 24.8 0.5 1 0.9 2.3 1.1 3.9 0.4 2.9 0.2 5.8-0.5 8.6 2.9-1.7 5.7-4.1 8.6-6.6 6.9-5.9 14.3-12.2 23-12.8 1.6-0.1 3 0.6 4.2 2.1 1.2 1.4 2.2 3.8 2.9 6.9 2.6 10.5 3.1 29.1 5.6 35.3 2.4 6 16.3 28.6 23.3 44.3 2.2 5 3.8 9.3 4.1 12.2 0.2 1.7 0.1 3-0.3 4q-0.9 2-2.5 3.7c3.7 7.1 6.3 14.3 7.7 21.2 1.9 9.9 1.3 20.7 3.1 30.6 12.7 66.6-20.7 135.5-62.5 183-0.8 0.8-1.8 1.3-3.2 1.2-1.1 0-2.6-0.6-4.2-1.5-5-3-11.9-10.1-13.4-11.3-3.3-2.9-5.8-5.3-8.1-7.1-2-1.6-3.9-2.7-6.2-3.2-3.2-0.7-7.1-0.2-13.3 1.5-1.2 0.4-2.4-0.3-2.7-1.4-0.3-1.2 0.3-2.4 1.5-2.7 7.1-2 11.7-2.4 15.4-1.6 5.5 1.1 9.2 5.1 16.3 11.3 1.3 1.2 7.9 7.9 12.7 10.8 0.7 0.4 1.8 0.8 2.2 0.9 40.8-46.5 73.7-113.9 61.3-179-1.9-10-1.3-20.8-3.2-30.7-1.1-6.2-3.5-12.6-6.7-19-0.9 0.6-1.8 1.2-2.9 1.9-5.2 3.1-11.6 5.4-15 7.7-9.4 6.2-16.7 9.1-27.4 11.1-23.8 4.5-46.7-11-52.8-35.3-1.6-6.5-1.9-18.7 1.5-27.9 2.4-6.6 6.8-11.6 13.6-12.6 9.6-1.4 10.3-0.2 18.7 0.4 3 0.3 6.6-0.3 10.2-0.5 4.1-0.2 8.2 0.1 11.6 2.1 15.9 9.6 32.9 27.3 43.5 46q0.5-0.6 0.7-1.3c0.3-0.6 0.1-1.6-0.1-2.9-0.6-2.6-1.9-6-3.6-9.9-7.1-15.7-21-38.4-23.4-44.4-2.6-6.3-3.1-25.2-5.7-35.8-0.5-2-1.1-3.7-1.8-4.9q-0.2-0.5-0.6-0.8-0.1-0.1-0.2-0.1c-4.6 0.3-8.7 2.5-12.6 5.3-4.1 3-8 6.7-11.9 9.8-3.2 2.6-6.4 4.7-9.8 5.8-3.9 7.5-11.1 13.8-18.2 16.7-2.1 0.9-10.6 2.8-15.3 1.4-2.9-0.9-4.7-2.7-4.4-6 0.4-4.7 5.1-18.6 10.7-26.7 1.5-2.3 3.1-4.1 4.7-5.3 1.3-0.9 2.7-1.4 3.9-1.5 1.4-0.1 2.8-0.4 4.2-0.7 1.8-0.3 3.6-0.5 5.3-0.1 0.4 0.1 1.4 0.5 2.5 1 1.9-0.7 3.7-0.8 5.3-0.1 8-8.6 20.3-19.9 29.6-30.6 5.4-6.1 11.3-11.9 17-17.9 3.4-4.3 6.9-8.5 11-12.2 0.6-0.7 1.2-1.5 1.8-2.3 4.1-5.3 8-11.3 13-15.6 0.8-0.7 2.9-1.3 2.9-1.3 0.9-0.2 1.9 0.2 2.4 1q0.3 0.7 0.2 1.4c3.9-6.9 7.8-13.8 12-20.4 1.1-1.7 1.8-3.7 2.5-5.6 1-2.3 2-4.5 3.6-6.3 14.5-16.5 23.6-38 37.2-55.3 4-5.1 7.9-10.5 11.5-15.7l0.4-0.6c-5.2 5.8-10.9 12.3-13.4 15.8-9.3 12.8-20.8 24.4-29.7 37.4-13.1 19.5-26.5 38.6-40.6 57.3-10.9 14.5-24.8 25.7-38.8 36-4.2 3-12.1 4.4-20.3 5.7-7.5 1.2-15.2 2.3-19.9 5-2.2 1.3-6.9 2.6-12.6 4.6-12.4 4.5-30 13.7-35.8 40-5 22.9-1.3 67.6 10.9 87.4 2.3 3.7 6.3 5 9.8 7 10.6 6 20.2 7.7 28.8 17.7 4.1 4.8 5.1 11.1 2.6 15.4-1.7 3-5 5.3-10.4 5.6-8.5 0.6-17.3-1.7-26.2-5.2-12.8-4.9-25.5-12.5-36.5-17.1-9.9-4.2-22.2-4.1-32.3-7.1-39.8-11.9-77.6-32.8-117.8-44.2-16.4-4.6-33.9-5.8-50.4-10.1-11.1-2.9-36.1-8.2-55.3-9.9-8-0.7-14.9-0.7-19.2 0.4-3.5 0.8-8.2-0.1-12.9-0.4-3.6-0.3-7.1-0.3-9.4 2.2 0.1 0.2 0.5 0.6 0.8 0.9 0.4 0.3 0.8 0.6 1.2 0.9q0.9 0.6 2.1 1.2c9.6 5.3 29.3 11 33.6 13.2 19.4 9.8 41.5 13.9 62 21 11.4 3.9 20.8 10 32.8 12.9 1.5 0.3 3 0.6 4.5 0.8 5-1.7 9.9-3.4 14.5-5.3 2.6-1 5.9-1.2 9.3-1.1 4.6 0.3 9.6 1.3 13.2 1.6 1.4 0.1 4.1 0.9 4.1 0.9 0.9 0.3 1.5 1.1 1.5 2.1 0 0.9-0.6 1.7-1.5 2 0 0-2.1 0.7-3.2 0.7-3.8 0-7.8 1-11.6 1.6-8.5 1.1-17.3 2.7-25.8 1.9-14.1 4.6-29.1 8.1-43 10.7-2.6 0.5-8.8 1.2-13.8 2.7-1.5 0.5-2.9 1-4.1 1.7-0.6 0.4-1.2 0.8-1.5 1.2 0.2 0.2 0.5 0.5 0.7 0.8q1.1 0.9 2.8 1.9c7.4 4.3 21 9 23.8 9.9 24.1 7.7 47.5 8.1 71.4 1.1 9.1-2.7 19.4-3.9 28.9-4.6 1.7-0.6 3.4-1.1 4.9-1.2 1 0 3-0.3 3-0.3 1.1-0.2 2.1 0.6 2.4 1.6 0.2 1.1-0.4 2.2-1.5 2.5 0 0-4 1.3-6 1.5-0.7 0-1.4 0.1-2.1 0.1-2.6 1-5.3 2.5-7.7 3.5-10.1 4.1-21.6 8.7-30.1 15.4-0.9 0.6-6 3.8-9.3 6.8-0.7 0.6-1.3 1.2-1.7 1.8q-0.2 0.3-0.4 0.5c7.4 6.3 16.8 7.2 26.5 6.2 10.4-1.2 21.2-4.6 30.5-6.9q3.5-0.8 6.9-1.6 2.6-1.3 5.1-2.3c3.6-1.5 7.6-2.6 11.3-3.2 0.3 0 0.9-0.3 1.1-0.4l0.1-0.1c1-0.5 2.3-0.2 2.9 0.8 0.6 1 0.3 2.3-0.7 2.9 0 0-2.4 1.5-3.7 2-4.9 2-9.7 3.2-14.6 4.4-5.8 2.9-11.3 7.1-14.8 12.2-0.4 0.6-2.5 3.9-3.8 6.3l-0.1 0.2c4.9-0.4 8.8-2.1 13.6-3.1 3.8-0.7 7.9-0.6 12.1-0.4 3.9 0.1 7.7 0.1 11.4-0.8 3.4-0.8 6.8-1.5 10.3-2.3 0.9-0.2 2.5-1.3 3.6-2 1-0.5 1.8-0.8 2.2-0.8 1.1 0 1.7 0.6 2.1 1.2 0.2 0.4 0.5 1.2 0 2.3-0.1 0.3-0.4 0.7-0.8 1.1-0.4 0.6-1.2 1.3-2.4 2.2-5.8 4.5-20 14.1-27.3 22.6-1.8 2-3.1 3.9-3.7 5.7-0.4 1.2-0.5 2.2 0.2 3.1 4.2 4.8 10.8 5 17.8 3.4 11.3-2.7 23.6-10.6 28.9-15.5 2.2-2.1 4.8-4.3 7.4-6.4q0.9-1.1 1.9-2.1c1.9-2 3.9-3.6 5.4-4.1 0.5-0.3 1.6-0.7 1.6-0.7 1-0.4 2.1 0 2.6 0.9 0.6 0.9 0.3 2.1-0.5 2.8 0 0-1.6 1.3-2.5 1.9-1.8 1.3-3.7 2.8-5.5 4.3-1.6 1.9-3 3.7-3.7 5-3.3 6.3-17.5 31.1-22.6 47.6-1.2 3.9-1.9 7.3-1.7 9.8 0 1 0.2 1.8 0.8 2.2 1.9 1.3 4.1 0.5 6.2-0.8 4.1-2.5 8.1-7.2 10.3-9.1 14.5-12.4 27.2-24 37.6-40.4 0.2-0.4 0.5-0.8 0.8-1.3 0.6-1.2 1.1-2.2 1.6-2.9 2.8-4.6 7.1-9.5 11.5-12.5 1-0.6 2.8-2 2.8-2 0.9-0.6 2.1-0.5 2.8 0.2 0.8 0.8 0.8 2 0.2 2.9 0 0-1.8 2.1-2.8 3.1-4.3 4.1-9 8.6-12.5 13.5-4 8.1-12.1 27.1-15.5 40.1-0.9 3.6-1.5 6.8-1.4 9.1q0 0.7 0.1 1.3c0.1 0.2 0.1 0.4 0.3 0.5 0.8 0.7 1.9 0.6 3.2 0.2 2-0.6 4.3-1.9 6.8-3.7 8.6-6.1 19-17.8 24.9-26.7 2.4-3.6 4.1-6.7 4.5-8.7 2-10 6.5-21.8 10.3-30.9 0.2-0.5 0.4-1.4 0.8-1.8 0.4-0.3 1.1-0.8 2.4-0.6 1.1 0.1 2 1.1 1.9 2.3-0.2 0.7-0.5 1.3-1 1.6-0.1 0.1-0.1 0.1-0.1 0.1-3.7 8.9-8.1 20.4-10.1 30.2-0.5 2.4-2.3 6-5.2 10.2-6.2 9.4-17 21.5-25.9 27.9-3.6 2.6-6.9 4.2-9.6 4.6q-3.6 0.6-5.8-1.4c-0.9-0.7-1.5-1.9-1.7-3.6-0.4-2.6 0.2-6.8 1.4-11.7 1.8-6.8 4.7-15.1 7.8-22.8-8.2 9.6-17.4 17.9-27.4 26.5-2.3 2-6.5 6.9-10.9 9.5-3.7 2.3-7.5 3-10.8 0.7-1.6-1.1-2.5-2.9-2.7-5.5-0.3-2.8 0.4-6.8 1.9-11.4 4-13.2 13.8-31.6 19.4-41.9-6.6 5-17.3 11.2-27.4 13.6-8.7 2-16.8 1.2-22-4.9-1.4-1.6-1.8-3.6-1.4-5.7 0.4-2.6 2.2-5.5 4.9-8.6 5.4-6.3 14.5-13.2 21.4-18.3q-2.4 0.5-4.9 1.1c-4 1.1-8.3 1-12.5 0.9-3.9-0.1-7.7-0.3-11.1 0.4-5.2 1-9.4 2.8-14.7 3.1-0.6 0.1-1.4 0.1-2.1 0-0.7-0.1-1.5-0.4-2-0.9-0.3-0.3-0.6-0.7-0.7-1.3-0.1-0.4-0.1-1.2 0.4-2.2 0.9-2.5 4.4-7.9 4.9-8.7 1.8-2.6 3.9-4.9 6.3-6.9-8.3 2.2-17.4 4.8-26.3 5.7-11.1 1.2-21.8-0.1-30.1-7.5-1.7-1.5-1.6-4 0.6-6.7 3-3.5 10.2-7.9 11.3-8.7 7.5-5.9 17.1-10.2 26.3-14-4.8 0.7-9.7 1.7-14.2 3-24.7 7.2-48.9 6.9-73.9-1.1-3.3-1.1-21.5-7.4-27.6-12.3-1.3-0.9-2.1-1.9-2.5-2.8q-0.6-1.6 0-2.9c0.8-1.9 2.9-3.6 5.9-4.7 5.4-2.3 13.7-3.2 16.8-3.8 11.2-2.1 23.2-4.8 34.8-8.2-10.8-3.1-19.7-8.6-30.1-12.6zm353.3 0.9c-10.3-18.5-27-36.1-42.7-45.6-2.7-1.5-5.9-1.6-9.2-1.5-3.8 0.3-7.6 0.8-10.8 0.6-7.9-0.6-8.6-1.8-17.7-0.5-5.2 0.7-8.4 4.8-10.3 9.9-3.1 8.3-2.8 19.3-1.3 25.3 5.5 22 26.3 36.2 47.8 32.1 10.1-1.9 17-4.6 25.8-10.5 3.5-2.3 9.9-4.7 15.2-7.8 1.2-0.6 2.2-1.4 3.2-2zm-77.5-100.6c-0.7 0-1.4 0.2-2.1 0.2-1.6 0.3-3.2 0.7-4.7 0.8-0.7 0-1.5 0.5-2.2 1.2-1.1 0.9-2.1 2.2-3.1 3.7-5.2 7.5-9.6 20.4-10 24.6 0 0.9 0.6 1.3 1.4 1.5 1 0.4 2.3 0.5 3.6 0.4 3.6-0.1 7.5-1.1 8.8-1.6 5.3-2.2 10.7-6.5 14.4-11.8q-1.3 0-2.6-0.3c-4.1-0.9-6.4-2.8-7.5-4.9-1.1-2.1-1.2-4.5-0.4-7 0.9-2.4 2.5-4.9 4.4-6.8zm-223.8 109.6c4.1-0.5 8.3-1.1 12.3-1.7l0.2-0.1c-0.8 0-1.6-0.1-2.4-0.1-2.7-0.2-5.3-0.1-7.4 0.8q-1.3 0.5-2.7 1.1zm228.8-108.1c-0.2 0.2-0.4 0.3-0.6 0.5-2 1.4-3.9 3.8-4.6 6.2-0.4 1.3-0.6 2.6 0 3.7 0.7 1.3 2.2 2.1 4.6 2.6q2.2 0.5 4.2 0c1.4-3.3 2-6.7 1.5-10.2-0.1-0.6-0.1-1.2-0.3-1.7-0.4 0.1-0.8 0.1-1.3 0-0.9-0.1-2.2-0.6-3.5-1.1zm82.3-80.7c-0.5 0.5-2 2.1-2.7 3-3.4 5.1-7.8 10.2-12.4 14.2q-0.7 0.5-1.3 1.1c-3.6 4.3-7.2 8.3-11 12.2-6.3 8.1-11.6 17.1-17.9 25.1-3.5 4.4-7.1 10.4-9.6 14.9 2.8-2 6.1-4.4 8.9-6.1 2.8-1.6 5.3-2.6 6.8-2.5 1 0.1 1.9-0.3 2.8-1 1.2-0.9 2.3-2.3 3.4-3.8 3.6-5.2 6.6-12.5 9-16 8.8-13 16.3-27.2 24-41.1z"/>
								</g>
							</g>
						</g>
					</g>
				</g>
			</g>
		</g>
	</g>
	<g id="Clip-Path" clip-path="url(#cp9)">
		<g id="Layer">
			<g id="Clip-Path" clip-path="url(#cp10)">
				<g id="Layer">
					<g id="Clip-Path" clip-path="url(#cp11)">
						<g id="Layer">
							<g id="Clip-Path" clip-path="url(#cp12)">
								<g id="Layer">
									<path id="Layer" fill-rule="evenodd" class="s0" d="m326.4 734.4c-0.8 1.9-2.8 7.3-5.3 12-1.8 3.5-3.9 6.7-6.1 8.2q-2.4 1.8-4.9 1.3c-1.4-0.4-3-1.4-4.4-3.7-7-11.4-7.6-28.3-9-41.1-4-37.9 3.4-80.9 8-118.7 0.4-3.6 1.8-25.6 5.4-38.2 1-3.5 2.2-6.4 3.5-8.1 1.4-1.7 2.9-2.4 4.5-2.3 2 0.2 3.6 1.1 4.9 2.7 1.4 1.8 2.6 4.5 3.6 7.2 0.8 1.8 1.6 3.7 2.5 5 0.7 0.8 1.3 1.4 2.2 1.4 7.7-0.5 14.2-6.5 16.7-13.1 1.4-3.9 1.5-7.9-0.4-11.3-1.2-2.2-3.3-4.1-6.4-5.5-1.9-0.7-3.7-0.7-5.7-0.3-2.2 0.3-4.5 1.2-6.8 1.9-5.4 1.8-10.9 3-16.1-0.1-2.7-1.6-4.5-4.7-5.5-8.3-1.4-5-1.3-11-0.3-14.6 2.1-8.2 6.3-14.5 11.2-20.3 4.5-5.6 9.8-10.6 14.2-16.8 10.4-14.3 21.7-31.4 20.5-49.3-0.3-4.2-1.2-9.1-0.9-12.9 0.2-2.6-1.3-5.2-2-6.9-0.5-1.1 0-2.3 1.1-2.8 1.1-0.4 2.4 0.1 2.8 1.2 0.9 2.2 2.6 5.6 2.4 8.8-0.3 3.7 0.7 8.3 0.9 12.3 1.2 18.9-10.4 37-21.3 52.1-4.5 6.3-9.8 11.4-14.5 17-4.4 5.4-8.3 11.1-10.3 18.7-0.8 3.1-0.8 8.1 0.3 12.3 0.7 2.5 1.8 4.7 3.7 5.8 4 2.5 8.3 1.1 12.5-0.2 5.4-1.8 10.6-3.5 15.5-1.5 4.1 1.8 6.9 4.4 8.5 7.3 2.5 4.5 2.5 9.9 0.6 14.9-3 8.1-11 15.3-20.4 15.9-2.1 0.1-3.8-0.7-5.2-2.1-1-1.2-1.9-2.8-2.7-4.5-1-2.3-1.9-4.9-3.1-6.9-0.7-1.4-1.5-2.6-2.8-2.7-0.2 0-0.3 0.1-0.4 0.2q-0.5 0.4-0.9 1.1c-0.8 1.4-1.6 3.5-2.3 5.9-3.4 12.4-4.8 34-5.2 37.6-4.5 37.4-12 80.1-7.9 117.6 1.3 12.3 1.7 28.5 8.4 39.3 0.6 1 1.1 1.7 1.8 1.8 0.3 0 0.7-0.1 1-0.4 0.7-0.4 1.4-1 2-1.8 3.9-4.8 7.2-14.2 8.3-16.8 3.6-8.7 6.3-19.3 8.1-30.4-4.7-15.1-6.2-33.4-6.2-48-0.1-4.7 0.1-12.9 1.9-16.7q1.3-2.2 3.1-2.8c0.9-0.3 1.9-0.3 3.1 0.2 3.3 1.4 5 5.2 5.5 9.9 0.7 5.8-0.3 12.8-0.2 16 0.2 12.1-0.6 26.8-2.8 41.1 1 3.2 2.1 6.2 3.5 9 0.8 1.5 6 11.9 10.2 16.3 0.4 0.5 0.8 0.9 1.2 1.2 0.1 0 0.1 0.1 0.2 0.1 3.7-5.9 5.2-15.4 5.6-26.5 0.2-4.6 0.1-9.5-0.1-14.6-9.5-18-14.5-40.5-17.2-60.1-1.6-10.8-3.4-20.9-2.5-31.9 0-0.5-0.1-7.8 0.6-10.4 0.8-2.4 2.4-2.7 3.7-2.2 1 0.4 2.1 1.3 3 2.7 1 1.6 2 3.9 2.9 6.5 3.2 9.8 5.2 25.1 5.8 29.4 1.8 13.2 6.7 40.3 7.9 64.8 1 1.9 2 3.7 3.1 5.4 1.8 2.9 4 8.7 6.7 13.1 1.6 2.4 3.2 4.5 5.3 4.9 0.1 0 0.2-0.1 0.2-0.2q0.3-0.3 0.5-0.7c0.4-0.9 0.8-2 1-3.3 1.9-8.7 1-24.3 1-26.7 0.1-13.4-1.4-25.4-4.1-37-9.1-13.9-17.9-30.8-20.7-37.6-0.7-1.7-1.3-3.3-2-4.9-3.3-8.3-6.6-16.6-7.2-25.6-0.1-0.6-0.4-1.8-0.3-2.6q0.1-1.3 1-2c0.5-0.4 1.2-0.7 2.3-0.6q0.8 0.1 1.7 0.6c0.7 0.5 1.5 1.4 2.4 2.7 4.1 5.7 10.1 20.1 11.2 22.7 6.5 16.1 12 30.6 15.6 45.7 1.6 2.4 3.2 4.7 4.8 6.9 3.4 4.7 6.6 8.5 9.3 10.4 1-6.2 0.1-13.8-1.2-19.8-1.2-5.3-2.6-10.5-4.2-15.6-10.8-15.8-17.1-35.8-24.1-53.1-2.5-6.1-3.7-12.9-4.4-19.4 0-0.2-0.3-1.8-0.3-3-0.1-0.8 0-1.5 0.1-1.9 0.3-0.8 0.9-1.3 1.4-1.5 0.7-0.3 1.8 0 2.5 0.5 2.9 1.9 5.1 5.4 6.7 9.4 2.2 5.4 3.5 11.8 4.7 16 5.2 17.4 12 33.9 17.3 51.1q1.6 2.3 3.2 4.3c1.4 1.7 4.7 7.5 8.1 11.2q1.1 1.2 2.2 2c0.6 0.3 1.1 0.6 1.5 0.2 0.9-0.6 1.4-1.6 1.8-2.8 0.5-1.6 0.7-3.4 0.9-5.4 0.4-6.2-0.8-13.6-1.6-16.9-3.2-12.9-4.1-27.4-11.1-39.4-4.6-7.9-12.9-18.5-16.1-26.5-3-7.4-7.9-14.2-11.9-21.1-0.4-0.6-0.9-0.6-1.5-0.8-0.9-0.4-1.8-0.8-2.5-1.7-1.2-1.3-3.6-5.8-3.8-6.5-0.4-1 0-1.7 0.1-1.9 0.4-0.7 1-1.1 1.9-1.1 0.3 0.1 0.9 0.1 1.5 0.7 0.3 0.3 0.5 0.6 0.6 1 0.4 0.6 2.2 4.1 3 5.1 0.2 0.2 0.5 0.3 0.7 0.4 0.4 0.1 0.8 0.2 1.2 0.4 0.9 0.5 1.8 1.1 2.5 2.3 4.1 7 9.1 14 12.2 21.6 3.2 7.8 11.3 18.2 15.9 25.9 7.2 12.4 8.2 27.3 11.5 40.6 1 4 2.5 14.3 1.3 21.5-0.6 3.6-1.9 6.5-4 8.1-2.2 1.6-4.8 1.1-7.5-1-2.3-1.8-4.6-5-6.6-7.9q0.5 2.1 1 4.3c1.6 6.9 2.4 16 1 23-0.1 0.5-0.6 1.7-1.3 2.3-0.8 0.7-1.8 0.8-2.7 0.4-3.1-1.3-7.4-5.7-11.9-11.6 1.5 8.9 2.3 18.1 2.2 28.1 0 2.5 0.9 18.6-1 27.6-0.7 2.8-1.6 4.9-2.6 6.1-1.2 1.2-2.6 1.7-4.2 1.4-3.1-0.7-5.9-3.3-8.1-6.8-2.4-3.8-4.3-8.6-5.9-11.7q0 3.5-0.1 6.9c-0.4 12.2-2.3 22.8-6.6 29.1-0.6 0.9-1.4 1.4-2.3 1.6-0.9 0.2-2.2 0-3.4-0.8-1.5-1-3.3-3-5.1-5.5-3.7-5.3-7.3-12.5-8-13.8q-0.6-1.2-1.2-2.6c-1.7 8.8-4 17.1-7.1 23.9zm4.3-95.2c-0.1 0.1-0.2 0.3-0.3 0.4-0.2 0.5-0.4 1-0.6 1.6-1.1 3.7-1 9.7-1 13.4 0 11 0.8 24.3 3.4 36.6 1.1-10.6 1.6-21.1 1.4-30-0.1-3.1 0.9-10 0.3-15.6-0.2-1.6-0.5-3.1-1.1-4.3-0.4-0.9-1-1.7-1.9-2 0-0.1-0.1-0.1-0.2-0.1zm9.7-49.8c-0.2 2.8-0.1 6.2-0.1 6.6-0.8 10.6 1 20.4 2.4 30.8 2.3 15.7 5.9 33.3 12.2 48.8-1.8-21.1-5.6-42.2-7.2-53.4-0.6-4.2-2.5-19.1-5.6-28.6-0.5-1.6-1.1-3-1.7-4.2zm7.8-13.7c0.9 7.7 3.8 14.9 6.7 22.1 0.7 1.6 1.4 3.2 2 4.9 1.9 4.7 6.8 14.2 12.5 24.1-3.1-9.9-7-19.9-11.4-30.7-0.9-2.2-5.4-13.1-9.2-19.5q-0.2-0.4-0.6-0.9zm14.1-24.9c0.7 5.6 1.7 11.3 3.9 16.6 3.7 9.1 7.1 18.9 11.1 28.5-3-8.4-6-16.9-8.5-25.6-1.2-4.1-2.4-10.3-4.6-15.6q-0.8-2.1-1.9-3.9zm0.6-33.4c-0.2 0.2-0.3 0.3-0.5 0.4q0.4-0.1 0.7-0.5c-0.1 0-0.1 0.1-0.2 0.1zm-1.8 0.7q0.1 0 0.3 0-0.2 0-0.3 0zm-1.2-0.6q0 0-0.1 0 0.1 0 0.1 0zm1.2 0.6q-0.7-0.1-1.2-0.6c0.4 0.4 0.8 0.5 1.2 0.6z"/>
								</g>
							</g>
						</g>
					</g>
				</g>
			</g>
		</g>
	</g>
</svg>