<svg version="1.2" xmlns="http://www.w3.org/2000/svg" viewBox="0 0 398 798" width="499" height="1000">
	<title>xxr main (2)-svg</title>
	<defs>
		<clipPath clipPathUnits="userSpaceOnUse" id="cp1">
			<path d="m-0.05 0.08h0.96v0.92h-0.96z"/>
		</clipPath>
		<clipPath clipPathUnits="userSpaceOnUse" id="cp2">
			<path d="m60 25.1h337.9v772.45h-337.9z"/>
		</clipPath>
	</defs>
	<g id="Clip-Path" clip-path="url(#cp1)">
		<g id="Layer">
			<path id="Layer" class="s0" d="m0 0.6c0.1 0.4 0.7 0.5 0.7 0.1 0-0.2-0.2-0.4-0.4-0.4-0.2 0-0.3 0.1-0.3 0.3z"/>
		</g>
	</g>
	<g id="Clip-Path" clip-path="url(#cp2)">
		<g id="Layer">
			<path id="Layer" fill-rule="evenodd" class="s0" d="m259.3 25.6c-0.1 0.2 0.1 2 0.4 4 0.4 3.4 0.4 4 0.1 10.4-0.4 9.3-1.4 15.4-4 25.9-3.8 15-6.9 22.1-13.8 32.5-2.1 3.1-6.8 9.5-9.1 12.3-14.1 17.7-24.7 31.2-28.3 36-11.8 16-21.4 32.3-27.7 47-1 2.3-1.8 4.1-1.8 4.1-0.1-0.1 2.5-7 4.2-11.1 4.8-12.2 10.8-23.7 19.1-37.2 4.4-7.3 6.4-11 6.2-11.7-0.1-0.5-0.2-0.6-0.8-0.5-0.5 0-0.9 0.6-2.4 2.7-6.6 9.8-9 12.3-15.6 16.2-1.4 0.9-3.2 2-4 2.5-1.3 0.9-1.4 0.9-2.7 0.8-1.9-0.2-4.8-1.1-6.4-2.1-1.1-0.6-1.3-1-1.7-2-0.6-1.7-0.8-3.7-0.5-5.6q0.7-4 5.5-15.6c1.9-4.5 3.2-8.2 3.4-9.7 0-0.4 0.2-1 0.3-1.5 0.4-2-1-0.1-3.4 4.8-3.9 7.9-8.2 18.5-15.9 38.9-7.5 20.1-8.6 23.5-11.3 34.6-3.9 15.7-5.2 22.6-6.5 34.8-0.6 5.9-0.7 17.3-0.2 22.2 0.3 2.6 1.1 8.7 1.4 10.2l0.1 0.6-0.3-0.6c-0.1-0.4-0.6-1.9-1.1-3.5-3.8-13.1-4.3-26.5-1.8-44.2 2.4-17.1 7.5-38.2 13-54.4 2.6-7.6 5.2-13.5 8.2-18.2 0.9-1.5 1.7-2.9 1.7-3 0-1.3-2.5 1.1-4.3 4-0.9 1.6-2 3-4.1 5.2-5.6 5.7-8.6 11.3-15.1 27.9-10 25.3-11.6 31.4-12.1 46.8-0.1 2.8-0.2 4.8-0.3 4.4 0-0.3-0.5-3.3-1.1-6.6-1.3-7.7-1.6-10-2.2-16.8-1.1-11.3-2.2-16.4-4.6-20.8-1-1.7-3.1-3.9-4.5-4.7-0.6-0.3-1.5-0.8-1.9-1.1-1.2-0.8-5.7-6.8-6.8-9.1-1.2-2.5-2.5-6.8-3.2-9.9-0.6-3-0.8-3.5-1.4-3.5-0.9 0-1 0.8-1 6.7 0 6.9-0.3 14.5-0.6 15.1-0.2 0.3-0.3-0.1-0.5-1.3-0.2-0.8-1.2-5.7-2.3-10.7-1.1-5.1-2.3-10.7-2.6-12.5-0.6-3.3-2-14.9-2-16.4 0-0.9-0.5-2.3-0.8-2.3-0.1 0-0.2 0.5-0.3 1.1 0 0.7-0.5 2.8-0.9 4.7l-0.9 3.6 0.1-3.3c0.1-1.8 0.3-5.7 0.5-8.7 0.9-13.9 1-23.2 0.4-29.1-0.4-2.9-1.2-7.1-2.4-12.6-1.6-6.7-1.8-8.3-1.8-13.5 0-4 0.1-5.1 0.8-9.2 1.1-7.1 1.3-9.8 1-13.9-0.1-1.9-0.3-4.5-0.3-5.8 0-3.7-0.3-6.4-1.9-14.2-1.8-9.3-2.1-10-2.6-8-0.2 1.2-0.4 3.5-0.7 10.6-0.3 6.8-0.8 12.3-2 19.6-1.7 10.4-3.2 15.8-9.3 34.2-2.3 6.9-4.6 14.1-5.1 15.9-2.8 10.1-4.9 23-5.7 36.1-0.3 4.9-0.3 19 0 23.3 1.1 15 4.4 28.8 11.2 46.4 6.4 16.6 13.1 29.9 23 45.4 7.1 11.1 13.4 20.2 23.6 34.2 3.6 5 7.5 10.4 8.6 12 1.2 1.6 3.4 4.6 4.9 6.7 1.5 2.2 4.5 6.3 6.6 9.2 4.4 6.3 7.7 10.7 13.9 18.8 7.8 10 11.3 14.8 14.7 20.4 5.9 9.7 10.6 20.3 14.3 32.8 1.6 5.5 1.7 5.7 0.6 3.9-1.6-2.8-3.7-5.3-4.5-5.3-0.8 0-0.9 0.8-0.4 2 0.8 1.8 1.7 4.9 2.3 7.7 0.3 1.5 0.6 2.8 0.6 2.9 0 0.1-0.5-0.8-1.1-2-2-4.3-4.8-8.1-8.9-12.5-1.9-2-2.6-2.6-2.9-2.5-0.7 0.2-0.5 0.6 0.9 2.4 4 4.9 7.8 12.5 10.4 20.5 1.8 5.4 2.7 9.6 5.5 24.5 1.9 10.2 4.3 17.8 7.7 24.4l1.3 2.7 0.1 12.1c0.2 17.5-0.4 25.1-3.1 44.5-2.2 15.2-3.2 24.4-3.6 34.6-0.1 2.1-0.3 3.7-0.4 3.7 0 0-1.1-0.7-2.2-1.6-5.8-4.7-11.9-11.5-15.7-17.6-3.3-5.3-5.8-10.8-9.7-20.9-2.9-7.9-3.5-9.4-5.3-12.9-3.7-7.2-9.4-13.2-15.2-16-2.1-1-8-3.2-8.6-3.2-0.2 0-0.3 0.1-0.3 0.3 0 0.3 0.5 0.7 1.5 1.1 1.5 0.7 2.3 1.5 3.4 3.7 0.8 1.5 1.9 5 2.8 8.3 0.7 2.7 0.8 3.6 0.9 7.1 0.1 3.5 0.5 7.6 1 11.4 0.1 1 0.1 1-0.9-0.8-2.4-4.3-4.4-7.5-6-9.7-2.2-2.9-5.7-6.5-8-8.1-1.9-1.3-5.7-3.3-6.3-3.3-0.5 0 0.6 1.9 2 3.4 0.7 0.7 1.7 2 2.3 3 2.7 4.1 3.7 7.4 5.6 18.8 2.2 13 4 19.9 7.5 28.8 4.5 11.4 11.6 23.4 20.1 33.8 0.5 0.7 0.9 1.3 0.8 1.3-0.1 0-1.1-0.7-2.2-1.6-9.5-7.4-17-18.7-24.1-36.5-2.5-6.2-3.4-8.2-5.2-10.9-3.5-5.2-8.6-9.1-15.1-11.5-2.2-0.9-3.1-1-3.3-0.6q-0.5 0.8 1.6 1.9c4.6 2.2 10.3 6.9 13.2 10.7 4.7 6.2 6.7 11.7 7.8 21.2 0.4 4.2 0.9 6.5 1.7 8.5 1.4 3.7 5.8 9 10.6 12.7 3.6 2.9 3.7 3 1.9 2.1-7-3.9-11-8-15.4-16-4.5-8.1-5.2-9.3-5.5-9-0.2 0.2 2.1 7.5 3.1 10 3.3 8.3 8.2 13.9 16.5 19 1.4 0.8 5.6 3.1 9.3 5.1 13.8 7.2 19.4 10.8 24.6 15.8 4.7 4.5 7.7 9 9.5 14.1 0.6 1.6 0.6 1.9 0.5 4-0.2 2.5-0.6 6.6-1.3 12.8-0.3 2.3-0.6 5.5-0.7 7.2-0.1 1.9-0.4 3.7-0.8 5-1.2 4.2-1.3 9.5-0.3 19.8 1.2 11.7 2.5 18.3 5.2 26.8 2.5 7.5 3.6 11.7 4.2 16.6 0.3 2 0.6 4.6 0.7 5.7 0.3 1.5 0.5 2.1 0.8 2.5 0.5 0.4 0.5 0.6 0.3 1.6-0.3 1.6 0 6 0.6 8.3 1 4.1 3.7 8.6 6.4 10.4 1.1 0.8 1.2 0.9 1.3 2.2 0.3 2.5 3.3 15.1 4.3 18.2 0.6 1.9 2.1 5.4 3.5 8.4 1.4 2.8 3 6.4 3.6 8 1.3 3.4 2.7 5.5 5.5 8.3 2.8 2.8 4.1 3.7 11.7 7.7 0.9 0.5 2.4 1.2 3.4 1.5 1.7 0.5 2.1 0.5 9.3 0.5 8.4 0 9.4-0.1 13-1.9 5.4-2.5 16.2-11.7 20.3-17.2 7.7-10.4 13.3-22 14-29 0.3-2.5 0.4-2.8 1.1-3.6 1.9-2.1 3.4-4.9 4.3-8 0.5-1.7 0.6-2.8 0.8-5.5l0.1-3.4 0.9-1.3c1.4-2.2 7.5-13.3 10.2-18.8 6-11.8 9.1-21.7 11.5-35.9 1.2-7.2 1.6-11.4 2-19.9 0.2-2.9 0.4-6.7 0.5-8.5 0.2-3 0.1-4.2-0.4-5-0.4-0.7 0-2.5 1-4.5 3.3-6.4 10.5-15.5 18-23.1 6.2-6.2 10.7-9.8 20.2-16.3 12.4-8.5 16.8-11.9 21.6-16.6 6.5-6.3 10.5-12.4 13-20 1.8-5.5 2.5-10.1 2.5-15.9 0-5.8-1-12.9-2.8-19.4-0.7-2.4-0.7-2.5-0.6-6.8 0.2-5.4-0.2-7.9-1.8-13.9-1.3-4.6-3.5-11.9-3.9-12.6-0.3-0.7-0.6-0.4-0.5 0.4 0.1 0.4 0.9 4.4 1.8 8.8 1.5 7.7 2.3 12.9 2 14.2 0 0.5-0.1 0.5-0.4-0.4-0.1-0.5-1.3-3.6-2.6-6.9-1.3-3.2-2.6-6.8-2.9-7.8-1.4-4.3-2.4-9.8-3.9-21.4q-1.4-11.1-1.8-11.1c-0.9 0 0.2 19.2 1.6 27.5 0.6 3.6 1.7 7.4 3.8 13 4 10.4 5.3 14.3 5.3 15.6 0 0.9-1.2 5.6-2.1 7.8-0.4 1.1-1.2 2.5-1.8 3.2-2 2.5-6.8 6-12 8.8-3.8 1.9-13 6.5-12.7 6.2 0.1-0.1 1.2-1 2.3-1.9 3.9-3.3 7.3-7.9 10.3-14 1.8-3.6 3.5-8.3 3.4-9.3-0.1-0.8-0.8-1.2-1.3-0.9-0.2 0.2-0.9 1.6-1.4 3.1-3.6 10.6-9.9 16.4-24 22.1-3.8 1.6-9.8 4.5-12.3 6.2l-2.1 1.3 1.6-2.2c2.3-3 4.1-5.9 6-9.7 1.9-3.8 2.6-5.9 2.8-9.1 0.1-2 0.1-2.3-0.3-2.4-0.6-0.3-1 0.3-1.4 2.4-0.9 4.7-2.5 8.3-4.5 10.8-0.7 0.8-4.1 4.3-7.6 7.7-6.5 6.3-9.2 9.2-11.1 11.9-0.6 0.9-1.2 1.5-1.3 1.5-0.1 0-0.2-1.6-0.2-3.7 0-11.3-1.3-27.3-3.2-38.5-3.8-22.7-10.5-40.9-22.6-61-1.2-2-2.2-3.8-2.2-3.9 0-0.2-0.1-0.3-0.2-0.4-0.1 0-1.3-1.7-2.6-3.8-1.3-2.1-3.3-5.4-4.5-7.2l-2.2-3.4-0.2-2.8c-0.1-1.5-0.1-7.2-0.1-12.7 0.3-24.1 0.3-24.1-1.2-28.7-1.3-4-5.5-11.3-6.3-11q-0.3 0.1-0.2 0.6c0.1 0.3-0.1 0.1-0.6-0.5-1.2-1.5-4.9-4.8-5.3-4.8-0.2 0-0.4 0.1-0.4 0.2 0 0.1-0.9-0.4-2-1.1-1.1-0.7-2.4-1.5-3-1.8-3.7-1.6-7.4-3.5-8.3-4.2-0.9-0.8-1.7-0.9-1.9-0.3 0 0.1 0.4 0.7 0.8 1.3 3.1 3.3 5 6.9 6.9 12.7 1.6 5 2.3 8.8 3.5 18.7 0.6 5.8 0.9 8.1 1.3 9.9 0.3 1.6-0.4-0.5-1.6-4.3-3.2-11.4-7-19.5-11.8-25.7-2.3-2.9-3.4-3.8-4.1-2.9-0.2 0.2 0.1 1.1 1.5 3.9 1 1.9 2.4 5 3.1 6.8 2 5.1 5.3 14.1 5.1 14.1 0 0-1.4-1.6-3-3.6-20.8-26.1-27-33.2-42.3-48.8-4.8-4.9-5.6-5.9-13-16.9-2.5-3.6-5.3-7.7-6.3-9-3.9-5.1-8.5-13.7-10.8-20.2-1.9-5.2-3.5-12-4.4-18.6-0.8-6.1-0.7-17.8 0.3-25.5 1.7-13.1 6.7-30.2 13.4-45.3 4.3-9.9 10.1-19.2 20.8-33.9 14-19.1 18-25.7 24.4-39.8 2.5-5.4 4.7-11.2 9.4-24.4 2.9-7.9 4.4-11.9 6.5-16.8 0.8-1.9 1.5-3.6 1.4-3.8-0.1-0.6 0.2-1.5 1.8-5.9 2.1-5.5 2.9-8.5 4.9-17 2.7-11.6 3.4-15.6 3.8-22.3 0.5-7.9-0.7-16.5-4.3-30.1-1-3.7-1.1-3.8-1.7-3.9q-0.6-0.1-0.8 0.3zm4.1 19c1.4 8.6 1.4 14.5 0 23.4-0.9 5.4-3.1 14.3-5.4 21.3-2.7 8.4-12.8 31-18.8 42.1-5.9 11-14.6 25.3-24.9 40.9-6.9 10.6-9.6 14.7-12.5 19.5-11.2 18.1-18.3 34.1-24 54-3.9 13.3-5 20.4-5 31 0 7 0.3 10.3 1.4 17 1.4 7.8 4 16.2 5.9 18.8 0.7 0.8 0.7 0.2 0-1.2-2.2-5-4.6-16.5-5.3-25.6-0.4-4.5-0.3-14 0.1-17.9 0.9-8.8 3.3-18.5 7.9-32 4.9-14.2 11-26.8 20.3-41.7 1.6-2.6 6.9-10.7 11.7-17.9 13.2-19.9 23.3-36.3 28.4-46.1 0.6-1.3 1.1-2.2 1.2-2.2 0.1 0.1-0.7 2.4-1.7 5.1-7.6 20.6-14 32.5-27.5 50.9-16.2 21.9-21.9 32-28.8 50.4-4.7 12.3-7.6 23.7-9.1 35-0.8 6.2-1.1 10-1.1 16.2 0 13.4 2.5 23.7 8.3 34.7 1.2 2.4 1.6 2.6-4-3.2l-3.6-3.8-1.7-3.3c-4.5-9.4-6.4-17.4-7.1-31.4-0.8-16 2-35.8 7.8-55.4 3.4-11.1 7-20.3 12.2-30.6 6.1-11.9 12.9-22.2 24-36.3 8.3-10.5 14.2-18.6 17.9-24.8 2.2-3.6 2.2-3.4-0.1 1-2.8 5.5-7.1 12.4-17.5 28.2-8.7 13-11 16.6-15.7 24.5-7.9 13.2-13.2 24.6-17.5 37.7-3.2 9.7-4.8 16.4-7.2 29.9-0.1 0.5 0 0.7 0.2 0.6 0.2 0 1.2-3.5 2.5-8.8 4-16.3 7.4-26.5 12.7-38.2 5.1-11.3 12.7-24.2 24.7-42.2 14.4-21.5 16.1-24.4 24.6-41.2q6.9-13.7 9.2-17.4c7.4-11.7 11-20 13.8-31.1 1.9-7.8 2.7-14.4 2.7-23.6 0-3.4 0-7.7-0.1-9.3-0.2-3-0.2-3.1 0.1-1.8 0.2 0.7 0.6 2.9 1 4.8zm-177.5 1.8c0.6 4.5 0.7 6.6 0.4 10-0.6 7.9-1.9 12.9-7 28.6-7.3 22.2-11.1 38.4-12.8 54.7-0.4 4-0.4 18.4 0 24.4 1.2 18.6 3 28.3 7.7 42.1 3.1 9.3 6.3 16.9 11.4 27.2 6.1 12.2 11.5 21.4 23.5 40.3 3.6 5.7 8.8 13.9 11.4 18.2 5.6 9.1 5.1 8.2 5 8.2-0.1 0-6-8.2-10.7-14.9-5.9-8.4-14.3-21.2-19.6-30.2-8.5-13.9-15.1-28.1-21-44.3-5.2-14.6-8.1-27.5-9.4-41.7-0.4-5.3-0.3-22.3 0.2-27.8 0.6-6.6 1.5-13.7 2.4-18.7 1.4-7.7 2.8-12.7 7.9-28.8 3.5-10.7 5.5-17.5 6.6-22.9 1.4-6.7 3-18 3.3-24.3 0.1-1.6 0.2-2.9 0.3-2.9 0 0.1 0.2 1.3 0.4 2.8zm175 8.3c-0.5 11.3-3 22.3-7.4 32.7-2.7 6.4-5.8 11.8-12.9 22.7-2.1 3.4-5.8 9.3-8 13.1-7.6 13-10.5 17.1-22.4 32.1-9.5 12.1-14.1 18.6-19.6 28-14.5 24.6-23.8 56.3-24.8 84-0.5 15.1 2.6 32.1 7.6 41.5 0.5 0.9 0.8 1.5 0.8 1.5-0.1 0-2.2-2.3-4.8-5.1-5.1-5.7-5-5.6-5.9-9.9-1.7-8.4-2.4-26.3-1.5-37.5 0.7-8.6 5-27.7 9.1-41.5 6.9-22.7 17-42.6 32.5-64.4 3.7-5.2 8.5-11.4 19.6-25.2 21-26.4 25.5-33.2 29.8-44.7 2.4-6.4 5.6-18.4 6.9-26.1 0.8-4.6 1-5.3 1.1-5.2 0 0.1 0 1.9-0.1 4zm-175.6 19.9c-0.2 1.2-0.5 2.8-0.6 3.7-0.1 0.8-0.2 1.6-0.3 1.8-0.1 0.1-0.5 1.6-0.7 3.2-2.3 14.1-2.7 16.3-3.8 20.4-3.9 14.4-4.9 19-6.2 29.7-0.7 5.7-0.9 17.5-0.4 24.6 1.2 16.4 3.7 32.5 7.6 49.3 1.6 7.3 3.8 14.3 4.5 14.3 0.3 0 0.2-0.5-0.3-2-1-3-3.2-12.8-5.4-24.9-2-11.1-3.4-21.6-4.5-33.4-0.7-7.2-0.6-21 0.1-26.8 1.2-9.6 2.6-16.8 5.4-27.1 2-7.2 2.4-9.4 3-16l0.6-5.4 0.4 3.8c0.7 6.7 0.5 9.5-1.3 17.7-2.1 9.9-3.1 14.7-3.6 18.6-2.7 18.6-2.2 38.8 1.4 60.5 3 18 7.6 34.6 14.8 53.7 3.3 8.9 7.5 19 10.4 25.1 1.9 3.9 1.6 3.6-2.1-2.5-14.5-23.6-22.8-40.2-28.2-56.5-5-14.8-6.7-25.1-7.7-46.5-1-23 2.2-41.8 12.8-74 2-6.1 3.7-11.6 3.9-12.3 0.5-1.9 0.6-1.3 0.2 1zm2.6 25.8c1.4 7.1 1.6 9.4 1.4 21.1-0.1 5.9-0.3 12.2-0.4 14.1-0.3 4.1-0.8 28.8-0.8 37.8 0 8.5 0.7 15.2 2.7 25.2 4.1 20.4 11.4 40.8 24.9 69.5 4.3 9.2 5.8 13.1 10.7 26.6 2.6 7.3 2.7 7.5 2.9 7.5 0.2 0-0.2-1.8-2.3-7.9-3.9-12.2-5.4-15.8-10.3-26.3-11.6-25-18-42-22.6-60.4-3.1-12.6-4.4-22-4.6-32.4-0.2-8.6 0.4-16.8 1.8-25.6l0.6-3.2 0.2 4.3c0.2 2.3 0.6 6 1 8.1 0.6 3.6 0.6 4.1 0.6 10.8-0.1 13.5 0.9 22.9 3.8 34.3 2.2 8.9 4.2 14.6 11 31.6 7.2 18.3 9.3 23.9 12.5 34.3 4.2 13.2 7.7 26.3 10.1 37.9 0.1 0.3-0.3-0.5-1-1.8-2.2-4.6-9.7-17.4-16.5-28.2-1.4-2.3-2.6-4.3-2.6-4.5 0-0.3-1.1-3.2-2.5-6.6-7.1-17.2-14-35.9-17.4-47.3-6-19.8-9.7-39.8-10.8-58-0.3-5.2-0.3-18.4 0-22.9 0.7-9 1.7-15.6 4-25.9 1.9-8.6 2.4-11.4 2.6-13.9 0.1-1.1 0.2-2 0.3-2 0 0.1 0.3 1.8 0.7 3.8zm80.3 50.9c-0.2 2.3 0.9 5.6 3 9.1 0.6 1 1 1.9 1 2.4 0 0.4-1.1 2.9-2.7 6.3-5.7 11.6-9.8 22.2-13.4 34.8-6 20.5-9.3 44.2-8.5 59.9 0.4 6.6 1.5 14.7 2.4 17.4 0.2 0.8-0.6-0.3-1.6-2-0.9-1.7-1.3-3.3-2.4-8.8-3-16-2.8-30.6 0.7-51.1 1.3-7.7 4.9-23.2 6.8-29.2 1.2-3.8 5.5-15.8 7.7-21.4 0.7-1.8 2.1-5.6 3.1-8.4 2.3-5.9 3.8-10 3.9-10 0.1 0 0 0.5 0 1zm25.3 2.3c-0.1 0.1-0.6 0.9-1.1 1.8-3.1 5-8.3 14.9-10.8 20.4-12.8 27.7-20.8 58.8-22.3 86.6-0.6 11.5 0.7 27.2 2.8 33.5 0.2 0.6 0.3 1.2 0.3 1.2-0.1 0.1-6.4-7.3-8.3-9.7-1.6-2-2-3.3-2.8-8.3-1.3-7.3-1.6-11-1.6-20.4 0-6.9 0.1-9.8 0.4-12.9 3-28.4 9.7-52.4 21.3-76.2 2.8-5.9 3.1-6.8 2.4-8.5-0.2-0.5-0.2-0.6 0.1-0.5 0.7 0.3 2.2 0.6 3.4 0.8l1.3 0.1-1.2 1.5c-4.1 5.2-9 16.1-13.7 30-5.5 16.6-8.8 32.2-10.1 49.1-0.4 4.7-0.4 18 0 22.8 0.5 6.7 2 17.8 2.5 18.3 0.3 0.3 0.3-0.5-0.1-4.4-0.9-8.1-1.1-11.6-1.1-21.6 0-7.8 0.1-11 0.5-14.6 1.8-20 6-38.4 13.2-57.7 5.5-14.8 10.2-22.4 15.6-25.5l1.3-0.8-0.7 0.9c-4.4 5.2-8.4 12.3-12.6 22.1-7.8 18.5-13 38.4-14.9 58-0.9 9-1 22.6-0.4 32.5 0.3 3.8 1.6 17.1 1.9 18.4 0.2 1.4 0.5 0.9 0.4-0.7-2.3-26.4-2.3-42.1 0.1-59 2.8-18.9 9.3-39.6 17.4-55.4 4.8-9.4 6.6-12 12.6-17.9 3.9-3.8 4.5-4.4 4.2-3.9zm-39.4 6.7c-2.4 5.8-6.2 17.9-8.5 26.9-4.1 15.4-7.3 33.3-8.1 44.7-0.6 7.7-0.6 11 0.1 19 0.1 1.5 0.1 1.4-0.5-1-2-8.3-2.8-18.1-2.3-29 0.6-13.6 1.6-20.7 3.4-26 0.9-2.7 5.3-14.1 7.1-18.8 1.8-4.4 4.7-10.5 6.5-13.6 1.3-2.1 3.2-5.1 3.4-5.1 0 0-0.5 1.4-1.1 2.9zm-48.8 15.4c0.6 1 1.7 2.7 2.6 3.8 0.9 1.1 1.9 2.5 2.4 3.1l0.8 1 0.1 5.3c0.1 15.3 3.8 38.3 9.1 57.8 0.8 2.9 1.3 5.5 1.7 8.1 0.2 2.1 0.4 3.8 0.4 3.9-0.1 0-0.3-0.5-0.4-1.2-0.6-2.7-3.5-11.8-7.6-24.3-8.4-25.4-12.2-38.7-12.9-44.8-0.3-2-0.2-2.7 0.1-4.7 0.3-1.7 0.5-4 0.6-8.1 0-3.1 0.1-5.9 0.2-6.3 0.1-0.4 0.3 0 1 2 0.5 1.4 1.4 3.3 1.9 4.4zm-5.4 12.8c2.5 11.1 6.1 23 13.9 46.7 5.5 16.8 7 21.9 9 30.4 1.1 4.8 2.7 13.1 2.7 13.6 0 0.2-0.4-1.1-0.9-2.9-2.2-7.2-4.9-15.7-6.5-20.4-1.6-4.5-2.9-7.8-10.6-27.7-1.6-4.1-3.4-9-4.1-11-3.4-9.8-5.9-20.7-7-30-0.3-2.8-1.1-15-1-16.4 0-0.7 2.4 8.7 4.5 17.7zm13.8-2.5c2.6 1.9 4.4 4.4 5.6 8.2 1.4 4.1 1.7 6.2 1.9 15 0.2 4.4 0.3 9 0.4 10.1 0.1 1.1 0 4.6-0.2 7.7-0.2 3.1-0.4 8.7-0.4 12.5v6.7l-0.9-3.5c-2.1-7.9-4.5-20.3-5.9-29.6-1.4-10.1-2.7-28.1-2-28.1 0.1 0 0.9 0.5 1.5 1zm18.5 34.5c-0.3 5.1-0.2 13.8 0.3 18.2 1.1 11.4 4.8 23.8 10.3 34.6 5 9.9 7.6 13.4 25.8 33.3 14.2 15.6 16.7 18.5 20.2 23.2 1.7 2.2 9 12.7 9.7 13.9 0.1 0.1-0.7-0.6-1.8-1.5-3.7-3.3-8-6.9-12.4-10.5-8.8-6.9-10.7-8.6-14.4-12.4-13.5-13.8-24.5-31.4-31.8-50.9-3.7-9.8-5-14.7-6.2-23-0.6-4.6-0.8-16.5-0.4-22.1 0.3-3.9 0.7-7.9 0.8-7.8 0.1 0.1 0 2.3-0.1 5zm-8.1 6.1c1.5 8.2 2 15 1.8 22.1-0.2 4.7 0.2 13.5 0.7 17.8 1.6 12.5 5.5 24.2 14.5 42.4 5.4 11.2 10.1 19.7 21.2 38.3 4.2 7.1 7.5 12.7 7.5 12.9 0 0.1-0.9-1.1-2-2.7-2.4-3.6-7.8-10.9-13.1-17.6-8.3-10.4-14.9-19.3-14.9-19.9 0-0.3-0.1-0.5-0.2-0.7-0.4-0.3-2.4-5.3-3.7-8.8-2.5-6.7-3.9-12.4-7-28.1-3.6-18.2-4.6-23.7-5.4-30.8-0.4-4-0.8-11.6-0.7-14.4 0.4-8 0.7-13.3 0.8-13.3 0 0.1 0.3 1.3 0.5 2.8zm5.4 23.8c0.7 4.3 1.6 8 3.3 12.9 4.9 14.6 10 25.3 17.6 36.8 4.7 7.1 9.9 13.8 14.8 19.1 1 1 1.5 1.7 1.3 1.6-0.7-0.1-2 1.2-2.8 3-1.8 3.9-2 10.1-0.5 13.7 0.2 0.3-0.7-0.5-1.9-1.7-1.1-1.3-3.6-3.8-5.5-5.8-3.3-3.4-3.9-4.3-6.7-9.6-0.3-0.6 0.6 0.5 2.9 3.7 2.6 3.6 4.8 6.2 6.4 7.5 1.8 1.5 1.7 0.8-0.2-1.4-1.7-2.1-7.8-9.9-11-14.2-2.2-2.8-7.9-14.7-11.4-23.5-2.8-7.3-4.8-13.9-6-20.1-0.5-3-1.2-8.3-1.2-9.9 0.1-0.9 0.2-0.7 0.9 1.8 2.6 9.1 5.3 16 8.9 23.3 4.3 8.8 10 17.7 16.9 27 5 6.7 7.8 10 7.8 9.1 0 0-0.9-1.3-2.1-2.9-2.5-3.1-7.6-10.2-10.4-14.4-9.2-13.8-15.1-25.7-20.1-40.8-1.1-3.4-1.5-4.5-1.8-4.4-0.3 0.1-0.3-1.3-0.3-8.5 0-6.1 0.1-8.2 0.3-7.2 0.1 0.8 0.5 3 0.8 4.9zm-8.3-3.5c-0.1 0.2-0.1 0.1-0.1-0.2-0.1-0.2 0-0.4 0.1-0.3 0 0.1 0.1 0.3 0 0.5zm4.5 33.3c-0.1 0.2-0.1 0.1-0.1-0.2-0.1-0.2 0-0.4 0.1-0.3 0.1 0.1 0.1 0.3 0 0.5zm5.7 23.7c-0.1 0.2-0.1 0.2-0.1-0.1 0-0.3 0-0.4 0.1-0.3 0.1 0.1 0.1 0.3 0 0.4zm1.2 5.8c0.2 0.4 0.3 0.9 0.2 0.9-0.1 0-0.8-1.6-0.8-1.9 0-0.3 0.2 0.1 0.6 1zm45.2 20.9c2.3 1.8 4.1 3.4 4.1 3.5 0 0-0.9 0.5-2 1-2.4 1.2-5.3 3.4-6.3 4.9-0.8 1.4-1.1 2.2-1.5 4.9l-0.3 2.1-2.2-2.4c-2.1-2.4-2.1-2.4-2.6-4.5-0.8-3.2-0.9-5.1-0.4-7.6 0.4-2.5 1.4-5.6 2.5-7.4l0.7-1.3 2 1.8c1 0.9 3.8 3.2 6 5zm-16.5 7.6c2.7 2.9 9.9 10.5 16.2 16.8 14.7 14.9 18.5 19.1 25.4 28.3 7.6 10.2 13 18.8 18.2 29.2 3.3 6.4 8.2 17.4 8.2 18.3 0 0.1-0.9-1.5-2-3.5-6.1-11.3-12.7-20.7-25.6-36.2-6-7.1-8.7-10.6-14.2-18.2-5.4-7.6-9.4-12.6-14.9-18.7-9-10.2-13.8-16.4-16.3-21.2-0.7-1.1-0.7-1.3-0.3-0.8 0.4 0.4 2.7 3 5.3 6zm22.6-2.6l0.9 0.7-1.7 0.9c-4.4 2.3-6.3 4.7-8 10l-0.6 2.1-1.1-0.8c-1.1-1-1.1-1.2-0.6-3.6 0.6-2.9 1-3.9 2.3-5.3 1.9-2 6.3-4.8 7.6-4.8 0.2 0 0.8 0.3 1.2 0.8zm-17.4 5.5c0 0.1-0.2 0.1-0.3-0.1-0.1-0.2-0.2-0.5-0.2-0.6 0-0.2 0.1-0.1 0.2 0.1 0.1 0.2 0.3 0.5 0.3 0.6zm32.1 7.3l1.6 1.5-0.2 1.4c-0.7 3.7 0.8 14 2.1 14.7 0.3 0.2-0.1 0.4-1.5 0.7-1.1 0.2-2.1 0.4-2.2 0.4-0.5 0-1.7-2-2.3-4-0.8-2.3-1.3-5.5-1.3-7.7 0-4.2 1-8.5 2-8.5 0.1 0 0.9 0.7 1.8 1.5zm-6.2 0.3c0.7 0.2 1.4 0.5 1.6 0.7 0.1 0.1 0.4 0.1 0.5 0.1 0.1-0.1 0 0.7-0.2 1.7l-0.3 1.9-1.4-0.2c-0.8 0-1.9 0.1-2.8 0.3-2 0.5-5.1 2.1-6.4 3.2l-1 0.8-3.1-3-3.1-3.1 1.8-0.9c3.2-1.5 6.4-2.1 10.6-2 1.4 0.1 3.1 0.3 3.8 0.5zm-21.3 6.8c5.4 6.2 8.1 9.7 13.6 17.3 7.3 10.1 9 12.2 16.1 20.7 6.3 7.4 8 9.6 11.7 14.6 6.5 8.6 14 20.5 16.9 26.7 0.5 1.2 0.4 1.1-1.5-1.6-3.2-4.6-5.9-7.7-15.8-18-9.6-10.2-11.8-12.8-14.7-17-0.5-0.7-1.3-1.7-1.9-2.3-1.6-1.8-4.5-6.8-8.8-15.6-2.2-4.5-4.6-9.1-5.4-10.2-1.7-2.5-5.4-7.2-8.9-11.1-2.6-2.9-3.6-4.3-5.5-7.7-0.9-1.8-0.9-1.7 4.2 4.2zm3.9 8.7c2.8 3.8 5 7.1 6.1 9l0.7 1.2-1.5-1.3c-2.9-2.5-3.4-3-5.8-7.8-1.2-2.5-2.3-4.6-2.2-4.6 0 0 1.2 1.6 2.7 3.5zm39.3-0.3c0 0.1-0.4 0.6-0.8 1.1-1.9 2-2.8 4.5-3.3 8.8-0.3 2.3-0.2 6.1 0.1 7.2 0.1 0.4-0.2 0.7-2.2 1.6-2.5 1.3-2.6 1.3-2.6 0.9 0-0.1 0.1-0.1 0.3 0 0.4 0.1 0.4-0.1 0.3-1.9-0.3-4 0.7-11.1 2.1-15.3 0.8-2.2 1.9-4.4 2.6-5.1l0.5-0.5 1.5 1.5c0.8 0.8 1.5 1.6 1.5 1.7zm-7.9 3.1l0.7 0.2-0.4 1.4-0.4 1.3-1.8 0.2c-1.9 0.1-4.7 1-6.5 2.1l-0.9 0.6-1.2-1.4c-0.7-0.8-1-1.3-0.8-1.4 0.1-0.1 0.8-0.5 1.4-0.9 1.2-0.9 2.6-1.4 5.3-1.8 2.1-0.4 3.5-0.5 4.6-0.3zm19.8 9.3c2.8 3 5.2 5.8 5.2 5.9 0 0.1-0.5 0.4-1.1 0.7-0.7 0.3-1.8 1-2.4 1.6l-1.3 1-1.1-1c-1.3-1.1-4.7-2.9-6.4-3.4l-1.3-0.3v-1.3c0.1-2.7 1.2-6 2.7-8.1l0.5-0.7 1.9 2.1c1.1 1.1 2.5 2.7 3.3 3.5zm-47.4-3.3c0 0.1 0 0.3-0.1 0.3 0 0-0.1-0.2-0.2-0.3-0.1-0.2 0-0.4 0.1-0.4 0.1 0 0.2 0.2 0.2 0.4zm88.9 11.6c2.5 1.6 3 2.2 3.7 4.3 2.3 6.9 3 15.9 2.2 28.4-0.4 6.5-0.3 10 0.1 11.6 0.2 0.7 0.2 0.8-0.1 0.5-1-0.8-1.5-4-2.1-13.5-0.2-3-0.6-6.9-0.9-8.7-1.3-9.1-4.4-17.9-8.3-23.7l-1.6-2.3 2.6 1.2c1.4 0.6 3.4 1.6 4.4 2.2zm-49.3-2.7c2 0.5 5.2 2 6.8 3l1 0.8-0.7 0.8c-0.6 0.8-0.6 0.8-1.1 0.4-1.2-1-4-1.3-6.8-0.6-2 0.5-5.6 2.2-6.7 3.2-0.4 0.4-0.7 0.7-0.8 0.7 0-0.1-0.9-1.4-2-2.9-1.1-1.6-1.9-2.9-1.8-3 0.1-0.3 4.7-2.2 6.1-2.6 1.6-0.4 3.9-0.3 6 0.2zm15.6 3.2c1 1.3 1.9 2.4 1.9 2.5 0 0.1-0.5 0.5-1.1 0.9-2.5 1.8-5.2 7.3-5.6 11.5l-0.1 0.6-1.6-0.7c-0.9-0.3-2.5-0.8-3.4-1l-1.7-0.4v-2.1c0-2.4 0.4-4.1 1.4-6.2 0.9-1.6 3.4-4.4 5.2-5.6 0.9-0.6 2.9-1.8 3-1.8 0 0 0.9 1.1 2 2.3zm29.4 3.1c3.7 7.2 5.6 15.4 6.7 28 0.3 4.3 0.8 8.5 1.2 9.8 0.1 0.4 0 0.4-0.4-0.1-2.1-2.6-2.4-3.9-3.7-16.6-1.1-10.6-2.4-16.4-4.6-22-1-2.2-0.6-1.9 0.8 0.9zm-76 0.6c1.4 0.9 2.7 1.9 2.7 2.1 0.1 0.3-0.1 0.9-0.6 1.7-0.8 1.3-2.1 4.7-2.1 5.5 0 1-0.3 0.1-1-2.9-0.7-3-1.7-7.3-2.1-8.1-0.1-0.4-0.3-0.5 3.1 1.7zm88.1 3.4c1.8 3.7 2.4 8.1 2.8 19.4 0.3 11.9 0.7 20.8 0.9 23.2 0.1 1.1 0.2 2.1 0.1 2.2 0 0-2.7-3.7-3-4.2-0.1-0.2-0.4-1-0.7-1.9-0.7-2.5-0.9-5.7-0.7-9.6 0.7-9.7 0.8-13.7 0.5-17.7-0.4-5.6-1.1-10.3-2.2-14l-0.4-1.2 1 1.1c0.5 0.6 1.3 1.8 1.7 2.7zm-20 2.3c1.5 2.4 2.9 5.1 4.1 8 0.7 1.7 5.8 16.2 5.7 16.2 0 0-0.6-0.7-1.2-1.6-1-1.3-1.6-2.4-2.9-5.9-4.3-11.7-5.4-14.4-6.5-17-1.3-2.9-1.1-2.9 0.8 0.3zm-63 0c1 1.5 2.1 3.2 2.5 3.7 0.5 0.8 0.7 1.3 0.8 2.9 0.1 1 0.2 2.1 0.3 2.5l0.1 0.7-2.7 0.1c-1.7 0-3.2 0.1-4 0.3l-1.3 0.4-0.2-0.6c-0.5-2.6-0.4-4.2 0.2-6.6 0.6-2 2.2-6 2.4-6 0 0 0.9 1.2 1.9 2.6zm88.2 3.5c0.4 1.2 0.9 3 1.2 4.2 0.5 2.1 0.5 2.5 0.4 17.4 0 8.8 0.1 16.6 0.2 18.6 0.2 1.9 0.2 3.5 0.2 3.5 0 0.1-0.6-0.6-1.2-1.5l-1.1-1.6-0.1-3.8c-0.1-2.1-0.3-10.5-0.5-18.6-0.4-14.8-0.5-16.6-1.3-20.8-0.3-1.3-0.5-2.5-0.5-2.8 0.1-0.5 1.7 2.9 2.7 5.4zm-35.9 0.1l3.4 4.4-1.2 1.4c-0.6 0.8-1.7 2.2-2.3 3.1l-1.1 1.7-1.4-0.3c-0.7-0.2-2-0.4-2.8-0.5-1.3-0.1-1.6-0.3-1.9-0.8-0.2-0.3-0.9-1.1-1.5-1.8l-1.2-1.1 0.5-1.6c0.7-2.1 1.4-3.4 2.7-5.3 1.2-1.6 2.9-3.5 3.1-3.5 0.1 0 1.7 1.9 3.7 4.3zm-27.6 0.3c4.7 0.6 10.1 2.2 12.8 3.8 2.1 1.1 2.7 1.7 1.4 1.1-1.5-0.6-3.5-0.9-5-0.5-1.8 0.4-4.2 1.5-5.4 2.7l-1 1-0.4-1c-0.3-0.5-1.4-2.4-2.4-4.2q-1.9-3.3-1.6-3.2c0.3 0.1 1 0.2 1.6 0.3zm-41.3 3.4c2.6 3.9 4.6 8.9 5.4 13.3 0.4 1.9 0.5 3.8 0.2 2.6-0.9-3.7-4-11.8-5.9-15.6-0.6-1.2-1-2.2-1-2.2 0.1 0 0.7 0.9 1.3 1.9zm5.9 0.6c1.9 3.9 2.7 7 4.2 15.7 1.1 6.7 2.2 11.9 3.6 16.6 0.6 2.2 1.1 4.8 1.5 7.4 0.3 2.2 0.5 4 0.4 4-0.2 0-2.3-3.3-3-4.7-1.8-3.6-2.8-7.2-3.8-14-0.4-2.2-0.9-5.7-1.2-7.6-0.3-2-0.7-4.8-0.9-6.2-0.4-4.5-1.4-9.9-2.2-13.2-0.3-1 0.3-0.2 1.4 2zm75.1 10.9c4.4 5.5 8 10 8 10.1 0 0-0.4 0.7-1 1.3-0.5 0.7-1.2 1.5-1.4 1.8l-0.3 0.6-1.5-1.1c-1.8-1.5-6-3.6-8.7-4.2-2.7-0.6-6.4-0.7-8.9-0.1-1 0.2-2 0.5-2.3 0.6-0.4 0.3-0.4 0.2-0.3-1.7 0.5-5.1 2.6-10.1 6.5-15.3 0.9-1.1 1.7-2 1.8-2 0.1 0.1 3.7 4.6 8.1 10zm-54-5.4c1.2 1.3 5 5.4 8.5 9 7.5 7.9 9 9.5 11.4 12.4 6.4 7.7 10.8 15.6 13.9 25.5 1 3.2 2.6 9.5 2.5 9.8 0 0.2-0.5-0.7-0.9-1.8-1.2-3.1-3.4-7.9-5-10.9-4.4-7.9-9.3-14.6-19.9-26.9-5.4-6.3-7.5-9-9.6-12.5-1.4-2.4-4.3-8-4.3-8.4 0-0.1 0.3 0.2 0.7 0.6 0.3 0.4 1.6 1.9 2.7 3.2zm-6.8-2.7c0.2 0.2 0.4 1 0.5 1.7 0.2 2.1 1.4 7.6 1.9 9.4l0.5 1.6-0.6 0.7c-1.7 1.7-2.9 4-4.6 8.5l-0.8 2.3-0.7-4c-0.8-4.5-2.4-12.9-3.4-16.8-0.3-1.5-0.6-2.8-0.5-2.9 0 0 1-0.2 2.1-0.4 2.6-0.4 5.3-0.5 5.6-0.1zm7.5 10.6c2.3 3.4 3.2 4.6 9.5 11.7 9.8 11.3 14.2 17.4 18.5 25.9 5.3 10.4 7.9 19.3 9.2 30.9 0.4 4 0.6 8 0.4 7.1-0.1-0.5-0.6-1.5-1.1-2.4-1.2-2.5-2.6-6.2-6-15.9-5.2-15.4-7.3-20-11.9-26.8-2.4-3.6-4.8-6.6-9.8-12.4-9-10.1-10.7-13.1-13.3-23.2-0.5-2.2-1-4.2-1-4.4 0-0.2 0.8 1.2 1.8 3.1 0.9 1.8 2.6 4.7 3.7 6.4zm37.8-6.8l1.9 0.3-0.6 1c-1.7 2.9-3.1 8.1-2.9 10.8l0.1 1.6-0.7 0.4-0.8 0.3-0.6-1c-0.7-1.5-2.6-3.1-4.2-3.7-1.8-0.7-5.6-0.9-6.7-0.4l-0.8 0.4-1.3-2.9-1.4-2.9 1.5-1c4.5-3 9.4-3.9 16.5-2.9zm-38.7 16.3c0.8 1.2 1.7 2.5 2.1 3l0.7 0.9h-1.9c-3.3 0-5.1 0.9-8 3.8-1 1-1.7 1.5-1.8 1.3-0.1-0.1-0.3-1-0.3-1.9-0.2-1.5-0.1-1.9 0.7-4 1.2-3.3 2.8-6.6 3.9-8.4l1-1.6 1.2 2.4c0.6 1.3 1.7 3.4 2.4 4.5zm50.2-2.2c2.4 0.7 5.4 2.2 7.4 3.6l1.5 1-0.9 1.9q-2.8 5.8-2.6 11.4l0.1 2.1-1.4-0.4c-1-0.4-2.3-0.5-4.1-0.6-2.6 0-2.7 0-4.1-1-1.7-1-3.7-1.9-6.6-2.7-2.2-0.6-5.4-0.6-7.5-0.1l-1.4 0.3-0.1-0.6c-0.1-0.3-0.6-1.8-1-3.3l-0.8-2.8 0.6-0.9c1.2-1.9 3.3-4.2 4.7-5.3 1.7-1.3 4.4-2.6 6.5-3 2.5-0.6 7-0.4 9.7 0.4zm15.9 5.2c4.9 6.2 9.8 13 12.6 17.1 1.4 2 2.6 3.8 2.6 3.8 0 0-0.9 0.1-2 0.1-2.3 0-4.8 0.7-6.8 1.8l-1.3 0.6-1-0.5c-0.5-0.4-2.1-1-3.6-1.5-2.2-0.7-3-0.9-5.6-1l-2.9-0.1-0.8-2.4c-1.8-5.2-1.1-10.9 1.9-16.8 1.2-2.4 3.1-5.2 3.5-5.2 0.1 0 1.7 1.8 3.4 4.1zm-62.3 2.1c0.2 0.3 2.1 2.6 4.3 5.1 2.2 2.5 4.3 4.9 4.7 5.4l0.7 0.8-0.9 0.3c-1.6 0.6-3.6 2.2-4.8 3.9-0.7 0.9-1.3 1.9-1.3 2.3l-0.2 0.7-0.7-0.6c-1.2-0.9-3.3-1.9-4.9-2.2-2.3-0.4-4.5 0.2-6.7 1.7l-1.1 0.8-0.8-6.4-0.8-6.4 0.6-0.8c0.9-1.2 3.6-3.3 5-4.1 1.4-0.7 2.6-0.9 4.8-1 1.5 0 1.8 0 2.1 0.5zm23.2 1.5c0 0.1-0.1 0.1-0.2-0.1-0.1-0.2-0.2-0.5-0.2-0.6 0-0.1 0.1-0.1 0.2 0.1 0.1 0.2 0.2 0.5 0.2 0.6zm12.9 7.7c2.4 0.6 5.4 1.8 6.2 2.4 0.5 0.4 0.5 0.4-0.4 0.6-0.5 0.1-1.9 0.6-2.9 1.1-2.8 1.3-5.3 3.8-6.5 6.5-0.5 1-0.9 1.9-0.9 2.1 0 0.6-0.5 0-1-1.4-0.3-0.9-1.1-2.9-1.7-4.4-0.8-1.9-1.3-3.4-1.6-4.9-0.1-1.2-0.3-2.3-0.2-2.3 0.3-0.3 3.3-0.6 4.9-0.4 1 0 2.8 0.3 4.1 0.7zm-53.9 4.5c0.5 0.8 1.4 1.9 2 2.6l1.1 1.1 0.4 4.5c0.6 5.5 0.8 8.7 0.7 8.7-0.2 0-2.6-6.5-3.9-10.6-0.8-2.6-2.2-8.2-2.4-9.7-0.2-0.9-0.2-0.9 0.5 0.5 0.4 0.9 1.1 2.1 1.6 2.9zm29.3 0c1.9 2.5 4.3 6.1 5.7 8.7l1.1 2.1-0.6 0.1c-0.3 0.1-1.3 0.6-2.3 1.1l-1.8 0.9-1-0.7c-1.3-0.8-3.5-1.4-5-1.4-1 0-1 0-1.9-1.7-0.5-0.9-1.3-2.2-1.9-2.8l-1-1.2 0.8-1.4c0.5-0.8 1.3-1.8 1.7-2.3 0.9-0.9 4.2-3.2 4.6-3.2 0.1 0 0.9 0.8 1.6 1.8zm39.3-0.5l1.3 0.4 0.7 2.1c0.4 1.1 0.9 2.2 1 2.4 0.1 0.3 0 0.4-0.3 0.4-0.8 0-3.5 1.1-5 1.9-2 1.2-4.1 3.4-5.5 5.9-1 1.7-1.4 2.2-1.7 2.1-1.2-0.5-3.9-0.8-6.1-0.8-2.1 0-2.4-0.1-2.5-0.5-0.1-0.2-0.4-1.1-0.6-2.1l-0.5-1.7 0.6-1.4c2-4.6 5.4-7.7 9.9-8.8 2.3-0.7 6.7-0.6 8.7 0.1zm-51.7 4.1c1.8 0.9 4.3 3.1 5.7 5.3 0.6 0.9 1.1 1.7 1 1.8-0.1 0-0.7 0.2-1.5 0.4-1.7 0.5-3.6 1.5-5.4 2.8-1.5 1.3-4.1 4.4-5 6.2-0.6 1.1-0.8 1.3-1.5 1.5-0.5 0-1.1 0.2-1.4 0.2-0.5 0.2-0.5 0-0.8-4.2-0.1-2.4-0.4-6.1-0.7-8.3-0.3-3.6-0.3-3.8 0.1-4.3 0.5-0.6 2.9-1.8 4.1-2.1 1.5-0.4 3.7-0.1 5.4 0.7zm62.7 2.6c1.1 0.3 2.6 0.8 3.5 1.2l1.5 0.6-0.5 0.4c-2.6 2.1-5.1 5.3-6.2 8-0.7 1.9-1.3 5.4-1.1 7.2l0.1 1.5h-7l-0.5-1.1c-1.3-2.7-4.8-6.2-7.9-8.1-1.7-1-1.7-0.7 0.6-3.8 2.5-3.3 5.3-5.3 8.7-6.2 1.8-0.5 6.4-0.3 8.8 0.3zm16.2-0.1c0.2 0.1 1.5 2.1 2.9 4.2l2.5 4-1.1 0.2c-5 1.3-10.1 5.8-12.1 10.7-0.3 0.7-0.6 1.9-0.7 2.6-0.3 2.4-0.1 2.4-2.2 0.9-1.8-1.1-4.2-2.2-6.7-3l-1-0.3 0.2-2.2c0.2-3.4 0.7-5.5 1.8-7.9 1.8-3.5 5.1-6.6 8.8-8.1 2.8-1.2 6.7-1.8 7.6-1.1zm-58.2 8c1.1 2.7 4 10 3.8 10.1 0 0-0.6 0.5-1.3 1.1l-1.4 1.1-4.5-4.7c-2.4-2.6-4.5-4.9-4.5-5-0.1-0.3 1.6-2.4 2.5-3.2 1-0.8 3.9-2.3 4.1-2.1 0.1 0.1 0.7 1.3 1.3 2.7zm-9.8-2.1c1.3 0.4 3 1.1 3 1.4 0 0-0.4 0.5-0.8 1.1-0.5 0.6-0.9 1.2-1 1.3 0 0.2-0.9-0.5-2-1.7-1.3-1.4-2-1.9-2.2-1.8-0.3 0.1-0.4 0.2-0.4 0.4 0 0.2 0.8 1.4 1.9 2.6l1.9 2.4-0.4 1c-0.5 1.4-0.5 1.3-3.6-1.6-1.2-1.3-2.3-2.3-2.4-2.3-0.1 0-0.3 0.2-0.5 0.4-0.4 0.4-0.1 0.8 1.8 3 1 1.1 5.4 7.4 6.3 9.1 0.3 0.5-6.1-6.1-7.5-7.8q-2-2.3-2.4-1.3c-0.1 0.2 0.3 1.1 0.9 2 1 1.5 4 6.6 4.7 7.9l0.3 0.6-0.8-0.6c-0.4-0.3-1.4-1.1-2.1-1.8-3.4-2.9-7.4-4.8-9.9-4.8-0.5 0-0.8-0.1-0.8-0.2 0-0.6 3.6-5.2 5-6.3 3.6-2.9 7.4-4 11-3zm27.7 2.8c3.9 0.6 6.7 2.2 10 5.5 1.7 1.6 3.8 4.5 3.8 5 0 0.1-0.4 0.3-0.8 0.5-3.2 1-6.1 3.4-8.3 6.8l-1.2 1.8-1.2-0.4c-0.7-0.2-1.9-0.5-2.7-0.6-1.2-0.1-1.5-0.2-1.6-0.6-0.7-3.8-1-5.6-1.1-7.1 0-2-0.5-5.8-1.2-8.9-0.2-1.1-0.4-2.1-0.4-2.2 0-0.1 3.3 0 4.7 0.2zm48.8 4.6c4.1 6.8 8.1 14.3 9 16.7l0.3 0.5-1.4-0.4c-0.8-0.3-2.4-0.6-3.5-0.7-4.1-0.6-9 0.6-12 2.9-0.5 0.4-0.6 0.4-1.6-0.4-1.4-1-3.2-1.8-5.5-2.5l-1.7-0.5-0.1-1.4c-0.3-2 0.3-6 1-7.9 1.2-3.2 4-6.4 7.1-8.4 1.5-1 4.4-2.2 5.2-2.3 0.4 0 1 0.9 3.2 4.4zm-72.7 2.6c1.5 1.9 3.2 4.1 3.8 4.9 1.1 1.5 0.9 1.3-1.8-1.3-1.6-1.6-3.5-3.4-4.2-4-0.8-0.7-1.3-1.3-1.3-1.5 0.2-0.6 0.5-1.5 0.7-1.5 0.1 0 1.3 1.5 2.8 3.4zm1.5 5.7c5.3 5.7 8.6 10.6 12.8 19 3.1 6.2 3.9 8.2 4.9 13 1.1 4.8 1.6 6.1 1.3 3.1-0.1-0.9-0.2-2.1-0.2-2.5 0-0.8-0.9-5.9-1.7-9.2-1.5-5.8-3.9-11-8.3-17.7-2.2-3.3-1.6-2.8 1 0.9 4.9 6.8 8.4 14.8 9.6 22.1 0.6 3.3 0.9 6.8 1 12.4 0.3 9.6 0.4 12.3 0.8 15.9 0.4 4.8 1.4 10 2.6 14.4 0 0.2-0.9-1.3-2-3.4-1.2-2.1-3.8-6.5-5.9-9.9-6.5-10.8-7.5-13.2-10.7-26.5-1.6-6.4-1.5-6.2-1.8-6.2-0.3 0-0.2 0.6 0.9 6.2 2.4 13.2 3.8 16.9 10.9 29 6.2 10.8 8.9 16.3 11.3 23.1 2.4 7.1 4.3 17 4.2 22.4v1.2l-1-2.7c-2.1-5.4-4.4-9.7-10.9-21-5.6-9.6-7.7-13.6-8.3-15.9-0.4-1.1-1.3-4.3-2.2-7-2.7-8.9-3.5-12.9-5.1-25.3-1.5-11.3-2.5-16.8-4.2-21.6-0.3-1-0.6-1.9-0.6-1.9 0-0.7 3.9 7 6 11.8 0.8 1.8 2.8 6.9 4.5 11.1 5.7 14.7 9.7 23.2 10.3 22.3 0.1-0.1-1.3-3.8-3.1-8.2-1.7-4.4-4.1-10.4-5.3-13.4-4.8-12.4-6.1-15.4-7.6-18.6-2.1-4.2-4-7.4-5.7-9.5-1.5-1.8-5.9-10-5-9.2 0.9 0.8 4.9 5.4 6.7 7.8 2.2 2.8 6.2 8.8 8.1 12.1 3.4 5.8 7.3 14.7 8.8 19.8 0.9 2.9 1.2 3.1 1 0.6-0.5-7.6-6.7-20.8-14.5-31.1-1.4-2-3.3-4.7-4.1-6.1-0.8-1.5-1.9-3.4-2.5-4.3l-1-1.6 1.3 1c0.6 0.5 2.3 2.2 3.7 3.6zm10.1 1.4c0.9 2.2 1.7 4.3 1.8 4.6 0.1 0.3-0.7-0.6-1.7-1.9-1.1-1.3-2.4-2.9-3-3.5l-1-1.2 1.2-1.1c0.6-0.7 1.1-1.2 1.2-1.1 0 0 0.7 1.9 1.5 4.2zm33.7-2.7c2.5 0.5 4.3 1.1 6.7 2.4 3.2 1.6 3.3 1.7 3.5 4l0.1 1.9-3-0.1c-3.8-0.1-5.5 0.2-8.3 1.6-2.1 1.1-4.5 3.4-5.7 5.3-0.4 0.6-0.8 1.1-0.9 1.1-0.1 0-0.2-0.2-0.4-0.5-0.7-1.6-4.4-4.7-7.6-6.5-0.9-0.5-1.6-0.9-1.7-1-0.2-0.1 2.3-3.1 3.7-4.5 2.1-2.1 4.5-3.4 7.1-3.9 1.6-0.3 4.6-0.2 6.5 0.2zm-37.3 3.5q0.5 0.6 0 0.1c-0.4-0.3-0.6-0.5-0.4-0.5 0.1 0 0.3 0.2 0.4 0.4zm-12.4 4.5c0.8 1.6 1.5 2.9 1.5 3 0 0.1-0.8 0.2-1.6 0.3-2.4 0.2-3.9 1.1-6.4 3.6-1.5 1.5-2.3 2.5-2.6 3.3l-0.5 1.1-1.1-0.2c-0.6-0.1-1.8-0.1-2.6-0.1-1.8 0-1.8 0.2-0.2-3 2-4 4.4-6.9 7.1-8.7 1.6-1.1 4.2-2.3 4.7-2.2 0.1 0.1 0.9 1.4 1.7 2.9zm28.8-0.1c0.9 0.3 2.4 0.8 3.2 1.2 3.2 1.4 7.6 4.6 9.1 6.6l0.8 1.2-0.6 1.3c-0.4 0.8-0.9 2.5-1.1 3.9l-0.5 2.5-1.1-1.1c-2.9-2.8-7.3-4.9-10.2-4.9h-1.2v-2.5c0-2.3-0.3-5.9-0.7-7.9-0.1-0.9-0.1-0.9 2.3-0.3zm30.6 1.3c3.2 0.6 5.8 1.5 8 2.8l1.2 0.7-1 1c-1.8 2-3.4 5-4.2 8.4-0.5 2.1-0.5 6.2 0 8.7 0.2 1.1 0.3 2 0.3 2-0.1 0.1-0.7-0.1-1.3-0.4-1.4-0.6-3.7-1-5.7-1-1.4 0-1.5 0-1.9-0.8-1.5-2.3-5.4-4.8-9.1-5.7-0.9-0.2-2.4-0.4-3.5-0.5h-1.9l0.3-1.4c1.2-5.2 3.5-9 6.9-11.4 3.5-2.5 7-3.2 11.9-2.4zm23 0.7c1.1 0.2 2.6 0.6 3.2 0.8 1.4 0.5 1.4 0.5 4 7.1 1.8 4.8 4.6 12.8 4.4 13-0.1 0.1-0.9 0.3-1.8 0.4-2.1 0.3-4.3 1.3-6.5 2.7l-1.7 1.2-0.7-0.6c-1.6-1.6-5.2-3.2-8.4-3.8-3.1-0.5-6.6-0.1-9.2 1.1-1.5 0.7-1.6 0.7-1.8-1.6-0.6-4.4 0-8.6 1.8-12.2 1.2-2.5 2.5-4.1 4.5-5.6 3.5-2.4 7.7-3.3 12.2-2.5zm-51.7 9.9c1.5 0.5 4.4 2.2 6.7 3.7l1.5 1.1-1.8 0.5c-2.9 0.7-5.9 2.3-8.4 4.5-1 0.9-1.1 0.9-1.1 0.4 0-0.3-0.2-1.7-0.6-3.1-0.5-2.3-0.6-2.5-0.2-4.2 0.2-0.9 0.4-2.2 0.4-2.7v-1l1 0.2c0.6 0.1 1.7 0.4 2.5 0.6zm-41.6 0.2c1.9 0.4 6.2 2.6 8.4 4.3 1 0.8 1.8 1.5 1.8 1.6 0 0.1-0.3 0.4-0.7 0.7-3.1 1.7-6.5 6.2-7.6 10-0.3 1.1-0.3 1.1-1.3 0.8-2.5-0.9-5.8-0.7-8.1 0.3l-1.3 0.6v-0.6c0-0.4 0.2-2.5 0.4-4.7 0.1-2.3 0.4-5.7 0.4-7.8l0.2-3.8 1-0.5c2.2-1.1 4.3-1.4 6.8-0.9zm-64.5 3.8c2 1.4 4.4 3.8 6.3 6.2 3.4 4.2 6 9.3 9.3 18 5 13.1 7.3 18 11.1 23.9 4.6 7 11.4 14 17.2 17.7l2 1.3v2.8c0 1.6 0 2.9-0.1 2.9-0.2 0-5.9-4.7-8.7-7.1-6.5-5.7-12.2-12.9-16.2-20.5-1.9-3.6-3.1-6.6-5.9-14.2-2.8-7.9-4.2-11.3-6.5-16-3.3-6.5-6.7-11.6-10.4-15.6-1.6-1.7-1.7-1.8-0.8-1.3 0.5 0.3 1.8 1.2 2.7 1.9zm-0.2 3.8c3.6 5 7.6 12.6 10.2 19.2 0.7 1.7 2.2 5.8 3.4 9.1 3.5 9.9 5.4 13.9 9.3 19.6 3 4.6 4.8 6.7 9.1 11 4 4 7.4 6.8 11.6 9.5l2.5 1.6-0.1 2.6c-0.1 1.5-0.2 2.7-0.2 2.7-0.1 0.1-3.7-2.5-6.1-4.4-2.8-2.2-9.1-8.5-11.2-11.1-4.3-5.6-7.6-11-10.8-17.5-2.7-5.7-4.6-10.5-8-20.6-3.9-11.8-5.3-14.6-12.1-24-1.9-2.7-1.9-2.8-0.6-1.4 0.7 0.7 2 2.4 3 3.7zm81.4-0.3c0.3 1.5 0.7 4.9 1 7.7 0.4 2.8 0.8 6.6 1.1 8.4 0.2 1.9 0.4 3.4 0.4 3.4-0.1 0.1-0.5-0.8-1-2-1.9-4.6-5.2-9.6-8.7-13.1l-2.3-2.3 1.2-1c0.6-0.5 1.7-1.3 2.5-1.7 1.3-0.7 4.6-1.9 5.2-1.9 0.1 0 0.4 1 0.6 2.5zm39.5-1.5c2.9 0.7 6.5 2.7 8.4 4.6 1 1.1 1 1.1-1.3 1.5-0.8 0.2-2 0.5-2.6 0.7-1.1 0.5-1.1 0.5-2.2 0-3.5-1.5-9.2-1.2-12.3 0.6-2.7 1.7-5.4 4.9-6.2 7.7l-0.5 1.4v-2.1c0-1.8-0.3-5.4-0.6-8.2l-0.2-1.2 1.9-1.2c4.3-2.8 7.7-4 12-4.1 1.1 0 2.7 0.1 3.6 0.3zm-120.8 5.6c3.7 6.2 4.5 8.2 8 18.7 4.4 12.9 6 16.9 9.2 23.2 6.1 12.1 14.6 22.2 23.5 28.2 1.8 1.2 4.2 2.4 4.7 2.4 0.4 0 0.4 0.5 0.4 4.1v4.1l-0.7-0.7c-1.5-1.3-13-13.6-16.4-17.4-11.3-12.7-18.4-23.2-22.8-33.9-2.2-5.1-3.3-9.2-4.8-17.8-1.1-5.9-2-9.9-3.1-13.1-0.4-1.1-0.6-2-0.6-2 0 0 1.2 1.9 2.6 4.2zm73.3 1.9c2.4 2.7 4.3 5.3 5.5 7.8 0.9 1.7 0.9 1.7 0.4 1.7-0.1 0-1.1 0.5-2.1 1l-1.9 0.9-0.4-0.5c-1.2-1.8-4.6-4.6-6.8-5.6l-1.2-0.6 0.3-0.9c0.8-2.2 3.3-6.5 3.7-6.3 0.1 0 1.2 1.2 2.5 2.5zm78.4-1.4c2 0.5 5.7 2.2 6.8 3.1l0.6 0.5-0.7 0.6c-0.4 0.3-1.2 1.1-1.7 1.8l-0.9 1.1-0.6-0.6c-1-0.9-3.1-1.5-5.9-1.7-3.3-0.1-5.4 0.3-8.2 1.7-4.8 2.4-7.1 5.8-7.8 11.5l-0.3 2.2-1.9-1.2c-1.3-0.9-1.8-1.3-1.7-1.6 0.1-0.2 0.4-1.6 0.8-3 1-3.3 2.1-5.5 3.8-7.6 4.6-5.9 11.1-8.3 17.7-6.8zm19.2 3.6c0.6 2.1 1.2 4.8 1.5 6l0.5 2.2-1.5 1.5c-3.6 3.7-7.1 9.7-8.2 14l-0.3 1.2-0.5-1c-1.4-2.5-3.6-4.8-6-6.4-0.7-0.4-1.2-0.8-1.3-1 0-0.2-0.3-1.4-0.5-2.7-0.3-1.9-0.3-2.7-0.1-4.1 0.6-4.2 3.1-7.8 7.3-10.7 2.5-1.6 5.5-2.8 7.4-2.8h0.7zm-33.7-2.7c0.5 0.2 0.9 0.4 0.8 0.5 0 0.1-0.6 0.6-1.3 1.2-1.2 0.9-1.4 1-2.1 0.9-2.2-0.7-5.9 0-8.4 1.4-2.9 1.7-6.3 6.8-7.2 10.5-0.2 1.1-0.3 1.2-1.2 1.4l-0.9 0.3-1.4-1.5-1.4-1.4 1.1-2.2c2.1-4.1 4.3-6.8 7.4-8.8 3.4-2.2 5.6-2.8 10.3-2.7 1.9 0.1 3.8 0.2 4.3 0.4zm-151 2.4c6.1 6.5 11.9 16.7 15.8 27.6 5 13.8 11.3 25.2 20.6 36.7 6.8 8.5 15.6 17.5 21 21.6l2.2 1.6v1.8c0 1-0.1 1.7-0.2 1.7-0.3 0-6.8-4.9-11-8.3-13.3-10.7-21.2-20.1-26.7-31.7-2.1-4.3-3.7-8.2-7.5-18.4-5.7-15-10.7-25.5-16-33.5q-2.2-3.3 1.8 0.9zm77.7 2.5c0.8 0.2 1.7 0.5 2.1 0.7 0.3 0.1 1.1 0.5 1.8 0.9 1.7 0.8 4.7 3 6 4.5l1 1.2-0.9 1c-1.2 1.3-2.5 3.4-2.9 4.9-0.2 0.6-0.4 1.1-0.5 1-0.1 0-0.8-0.2-1.7-0.3-2.2-0.3-4.4 0.1-6.4 1.1l-1.7 0.8-1.2-0.9c-1.3-0.8-3.7-1.7-4.8-1.7-0.6 0-0.6-0.1-0.5-1.2 0.9-6.5 1.4-9.9 1.4-10.3 0-0.5 0.2-0.7 1.3-1.1 2.5-1 4.4-1.2 7-0.6zm44.1 6.3c1.1 0.4 2.6 1.1 3.4 1.6 1.5 0.9 4.6 3.3 4.6 3.6 0 0.1-0.4 0.3-0.7 0.5-0.4 0.2-1.3 0.7-2.1 1.2l-1.3 0.9-1-0.7c-1.2-0.9-3.1-1.4-5-1.5h-1.5l-0.2-2.5c0-1.4-0.1-2.9-0.1-3.4v-0.9l0.9 0.3c0.5 0.1 1.8 0.5 3 0.9zm-27.8 0.2c0.8 1.7 1.7 6.2 2.1 9.5 0.2 1.9 0.4 3.5 0.3 3.7-0.1 0.3-2 1-2.2 0.8 0 0-0.9-1.7-2-3.8-1.1-2-2.1-3.8-2.3-4-0.6-0.7-0.3 0.3 0.9 3 1.8 4 1.8 3.9 0.1 2.3-1-0.9-2.4-1.9-3.6-2.5-2-1-2-1-1.9-1.7 0.3-1.6 2.4-4.6 4.3-6 1-0.8 3.4-2.2 3.8-2.2 0.1 0 0.3 0.4 0.5 0.9zm-88.1 8c1.9 4.5 4.4 10.8 7.4 19 6.6 17.8 10.3 24.3 19.2 34 6 6.6 13.6 12.9 23.5 19.7l3.5 2.4-0.1 3.1c0 1.7-0.1 3.1-0.2 3.2-0.1 0.1-4.3-2.9-7.4-5.3-11.4-8.7-18.7-16.4-25.1-26.7-5.2-8.4-10.7-19.4-17-34.1-1.3-2.8-3.1-6.8-4.1-8.8l-1.8-3.7-0.9-5.2c-0.5-2.9-0.9-5.5-1-5.8-0.1-0.8 2.2 4 4 8.2zm181.8-3.8c1.1 6.2 2.5 15.9 2.5 18 0 0.6 0 0.6-1.7 0.6-2.9 0-5.8 1-8.3 2.8l-1.1 0.8-0.2-2c-0.1-1.8-1.1-5.8-1.5-6.8-0.3-0.5 1-4.4 2.3-7.1 1.9-3.6 6.7-10.3 7.2-9.8 0.1 0.1 0.4 1.6 0.8 3.5zm-47.2 1.5c0.9 0.3 2.5 1 3.6 1.7 2.1 1.3 5 3.8 5.3 4.5 0.1 0.1-0.2 1-0.7 1.9-0.7 1.4-1.6 4.4-1.6 5.7 0 0.4-0.1 0.5-0.4 0.4-2.4-1-6.1-1.1-8.9-0.4-2.2 0.5-3.6 1.3-5.6 2.7l-1.4 1.1-0.5-0.6c-0.6-0.9-2.7-2.6-4.6-3.7-1.3-0.8-3.1-1.5-4.4-1.7-0.5 0-0.5-0.1 0.3-2.2 1.1-2.5 1.9-3.8 3.8-5.6 2-2 5.1-3.7 7.8-4.2 1.6-0.4 5.6-0.2 7.3 0.4zm-69.8 2.4c0.7 0.2 1.6 0.7 2.2 1.1l1 0.6-0.6 0.6c-2 2.2-3.3 6-3.2 9.4l0.1 2-1.1 0.7c-0.6 0.4-1.7 1.4-2.5 2.2-1.2 1.2-1.5 1.4-1.4 1 0-0.3 0.2-1.6 0.4-2.9 0.1-1.2 0.6-5.1 1.2-8.7 0.5-3.5 0.9-6.5 0.9-6.7 0-0.2 1.4 0.1 3 0.7zm93.6-0.7c1.5 0.3 4.3 1.6 5.8 2.6 4.3 3 7.4 8.9 8.1 15.3l0.2 1.6-1.2 1c-1.8 1.6-1.1 1.6 1.1 0 3.8-2.9 6.6-4 10.2-4.3 1.8-0.1 1.9-0.1 1.9 0.3 0 0.3 0.2 2.4 0.4 4.8 0.2 2.3 0.3 5 0.3 5.8v1.6l-1.3 0.2c-2.4 0.3-5.1 1.4-7.9 3.1l-1.2 0.8v-0.7c0-2.5-2.9-8.4-5.4-11.2-0.9-1-1-1.2-1-2.7-0.1-1.9-1.1-5.2-2.3-7.3-0.4-0.7-1.3-1.9-2-2.6-5.4-5.5-13.6-3.9-16.2 3.1-0.7 1.8-0.9 5-0.4 6.4 0.6 1.6 0.2 1.6-0.8 0-1-1.7-3-3.8-4.2-4.4-0.9-0.5-0.9-0.6 0-3.5 0.6-2.3 1.7-4.2 3.3-6 2.6-2.8 5.5-4.1 9.2-4.1 1.2 0 2.7 0.1 3.4 0.2zm-80.3 1.3c2.3 0.6 5 2.2 7 4.1 1.6 1.5 1.9 1.8 1.6 2.1-0.6 0.8-1 0.8-2.2 0.2-1.7-0.8-3.7-1.1-6.3-1.1-2.4 0-4.4 0.5-6.3 1.6-1.4 0.8-3.1 2.7-3.7 4-0.4 0.9-0.6 1.1-1.5 1.3-0.6 0.2-1.2 0.3-1.5 0.4-0.4 0.2-0.4 0-0.2-1.8 0.4-6.7 4.3-11.1 10-11.1 0.9-0.1 2.3 0.1 3.1 0.3zm16 8.7c2.4 7.2 4.9 12.5 12.1 24.8 4.5 8 7.4 13.2 8.6 15.8 5 10.9 6.1 18.7 4.3 28.7l-0.6 2.8-0.1-3.8c-0.3-6.3-1.5-10.9-4.5-16.6-0.9-1.7-3.9-6.9-6.7-11.4-2.9-4.6-5.8-9.5-6.5-10.8-1.3-2.3-3.7-7.4-3.7-7.8 0-0.1 0.7 1.1 1.6 2.6 0.8 1.6 2.8 4.9 4.4 7.4 1.6 2.5 3.7 5.9 4.8 7.6 4.5 7.1 8.3 15.3 9.9 21.3 0.3 1.2 0.6 2.1 0.8 2.1 0 0 0.1-0.7 0.1-1.5 0-2.1-1.1-6.1-2.6-10.1-2.3-5.6-4-8.8-9.7-17.6-4.6-7.3-6.7-11-9.1-15.8-1.7-3.6-2-4.2-2.7-7.6-1.2-5.5-1.7-8.7-2-12.2-0.3-3.8-0.3-4 0-2.9 0.2 0.4 0.9 2.7 1.6 5zm167.9 4c0.6 4.8 0.3 11.9-0.5 15.9-2.1 10-6.3 17.4-13.8 24.8-4.6 4.4-9 7.8-19.3 15-11 7.5-16.1 11.6-21.9 17.4-6.6 6.7-12.7 14.6-16.3 21.1l-1.1 2.2v-6.8l1.3-2.4c6.5-11.8 18.9-25.5 32.7-36.1 1.5-1.2 5.5-4.2 8.8-6.6 3.3-2.4 7.3-5.4 8.8-6.6 12.8-10.3 18-20.9 19.2-39.1 0.2-2 0.3-4.5 0.4-5.4l0.2-1.8 0.5 2.6c0.3 1.4 0.7 4.1 1 5.8zm-171.2-4.7c0.2 1.3 0.3 2.7 0.4 2.9 0 0.3-0.5-0.7-1.2-2.1l-1.3-2.6 0.9-0.4c0.5-0.2 0.9-0.4 0.9-0.3 0.1 0 0.2 1.2 0.3 2.5zm-77.8 2.2c5.7 12.9 15.4 25.4 33.6 43.3l7.1 6.9v8.2l-0.7-0.5c-2.4-1.7-12.2-12-17.9-18.8-10.4-12.5-17.7-25.1-22.6-38.7-1.1-3-1.7-5.1-1.1-3.8 0.2 0.3 0.9 1.8 1.6 3.4zm75.9-0.5c0.5 1.4 1 2.6 1 2.7 0 0.1-0.4 0.4-0.9 0.7-1.3 0.7-4 3.7-4.9 5.3-0.7 1.4-1.5 4.5-1.2 4.8 0.2 0.1-3.1 0.7-3.3 0.5-0.4-0.2-0.1-2.8 0.7-5.4 0.7-2.9 2.2-6.1 3.7-8.1 1.2-1.6 3.5-3.6 3.7-3.3 0.1 0.1 0.6 1.4 1.2 2.8zm26.6-0.1c2.5 0.6 6.1 2.8 8.1 4.8l0.8 0.7-1.1 1.4c-0.5 0.7-1.2 1.6-1.4 2l-0.4 0.7-0.7-1.1c-0.9-1.4-2.7-2.9-4.8-3.9-1-0.5-1.9-1-2.1-1-0.1-0.1-0.3-0.8-0.5-1.6-0.1-0.7-0.3-1.7-0.3-2-0.2-0.8-0.2-0.8 2.4 0zm-113.2 6.9c6.7 16 15.7 32.9 22 41.3 7.2 9.5 18.1 19 26.9 23.3l2.3 1.2v6.3l-0.6-0.3c-0.3-0.2-1.4-1.4-2.4-2.7-3.9-4.8-8.3-8.9-14.5-13.5-5.2-3.8-5.5-4.1-8.3-7.4-11.5-13.5-20.4-29-25.3-44.1-1.2-3.5-2.9-9.9-2.9-10.4 0-0.2 0.1 0 2.8 6.3zm135.9-5.1c2.2 0.5 4.3 1.6 5.8 3.1 2.3 2.4 4.3 7.3 5.2 12.9 0.2 1.3 0.3 2.3 0.3 2.3 0 0.1-0.7-0.3-1.4-0.7l-1.4-0.9v-1.7c0-3.1-1.5-6.3-4.2-8.6-1.5-1.5-2.5-2-4.5-2.6-2.9-0.8-6.2 0-8.7 2.2-1.4 1.2-3.3 4.1-4.4 6.3-0.7 1.6-0.9 2.4-1.4 4.5l-0.1 0.6-1.7-0.7c-1.9-0.9-1.9-0.9-1.2-3.9 0.9-3.5 2.7-6.5 5.2-8.9 1.7-1.6 3-2.5 5-3.2 2.7-1 5-1.2 7.5-0.7zm119 4.1c-2.2 14-5.7 21.7-13.6 29.3-3.3 3.3-5.5 5.1-13.7 11.1-10.9 8-17.2 13.3-23.4 19.6-6.7 7-12.5 14.5-15.9 20.7-0.6 1.1-1.1 1.9-1.1 1.8 0-0.4 1.9-4.7 3.3-7.3 4.6-9.1 12.1-18.7 20.8-26.8 3.9-3.6 8.5-7.3 16.4-13.3 3.6-2.7 7.2-5.5 8.2-6.3 8.6-7 13.4-14.5 15.9-24.8 0.4-1.6 1.1-3.3 2.1-5.3 0.8-1.6 1.5-2.8 1.5-2.8 0.1 0-0.2 1.9-0.5 4.1zm-183.7-2.3c1.5 0.5 4.6 2.3 5.5 3.3 0.4 0.5 0.4 0.6 0.2 1.9l-0.4 1.5-0.5-0.5c-0.7-0.6-2.6-1.6-4.2-2-1.1-0.4-2-0.4-3.5-0.4-2.8 0.2-4.3 0.9-6.8 3.4-2.2 2.3-3.4 4.2-4.3 7.1-0.8 2.3-1.3 2.7-1.3 1.1 0-1.7 0.7-8.6 1-9.5 0.4-1.4 3.3-4.2 5.5-5.3 0.9-0.5 2.2-1 2.8-1.1 1.5-0.3 4.1-0.1 6 0.5zm178.8 2.3c-1 1.8-2.8 4.3-4.3 6.2-1.5 2-1.7 2.1-10 7.8-4.6 3.2-10.6 7.1-13.4 8.7-12.4 7.3-19.3 12.2-25.2 18.1-3.8 3.8-6.5 7.2-8.9 11.5l-1.2 2.1v-6.3l3.4-4c9.6-11.2 17.7-19.1 25.3-24.8 4.7-3.5 9.1-6.1 17.8-10.4 9-4.5 11.7-6.1 14.9-8.3 1.1-0.8 2-1.5 2-1.5 0.1 0-0.1 0.4-0.4 0.9zm-89.6 0.2c4.3 2 7.3 5.3 9.8 10.7 0.6 1.2 1.3 2.8 1.5 3.7l0.4 1.6-1.8 1.8-1.8 1.8-1-1c-3-3.3-8.7-5.7-13.4-5.7-1.5 0-4.6 0.6-5.9 1.1-0.4 0.2-0.5 0-0.5-1.3 0-1.8-0.7-5.5-1.5-7.9-0.3-0.9-0.6-1.9-0.6-2 0-0.4 4.9-2.8 6.7-3.3 0.8-0.2 2.1-0.3 3.9-0.3 2.4 0.1 2.7 0.1 4.2 0.8zm71.7 3.1c-0.5 0.6-1.8 1.8-2.9 2.7-3.3 2.8-4.4 3.5-17.2 10.5-2.4 1.3-3.4 2.1-2.2 1.8 0.7-0.2 6.9-3 8.9-4 1.8-0.9 1.6-0.7-0.9 1-2.3 1.6-5.4 3.8-8.1 6.1-6 5.1-16 15.8-20.8 22.2-0.8 1.1-1.6 2.1-1.7 2.2-0.1 0.2-0.2-0.5-0.2-1.4v-1.7l2.6-3.8c2.8-3.9 6.7-9 10.6-13.7 2.8-3.4 3.5-4.4 3.3-4.6-0.3-0.4-9 8.9-12.4 13.1-0.8 1.1-2 2.9-2.8 4l-1.3 2.2v-2c0-2 0-2 1.2-4 2.5-4.3 3.7-5.7 7-9 6.3-6.3 12-10 21.2-13.9 8.8-3.7 12.3-5.5 15.2-7.8 0.7-0.5 1.2-1 1.3-1 0 0-0.4 0.5-0.8 1.1zm16.2 5.4c-1.4 3.7-4.3 8.7-6.9 11.9-3.1 3.8-6 6.3-17.2 14.9-8.3 6.3-12.1 9.6-17.7 15.2-5.6 5.6-9.5 10.3-13.1 15.6-2.2 3.4-5 8.6-6 11.3l-0.5 1.5-0.1-1.4c0-1 0-1.4 0.3-1.6 0.2-0.2 0.5-0.9 0.7-1.6 1.5-4.7 8.1-14.5 15.8-23.4 2.9-3.4 11-11.5 15-15.2 1.9-1.7 6.5-5.8 10.3-9.1 7.3-6.4 15.2-14.1 18-17.6 1-1.2 1.8-2.2 1.9-2.1 0 0-0.2 0.7-0.5 1.6zm-161.2 0.8c0.7 0.3 1.7 0.7 2.2 0.9l0.9 0.4-1.9 1.2-2 1.2h-2.4c-2 0.1-2.8 0.2-4.6 0.9-4.1 1.4-6.8 3.2-8.3 5.6-0.4 0.6-0.7 1.1-0.8 1.1-0.1 0-0.7-0.6-1.3-1.2l-1.2-1.2 0.5-1c0.8-1.4 2.9-3.9 4.4-5.1 1.5-1.2 4-2.6 5.9-3.1 1.9-0.5 6.8-0.3 8.6 0.3zm4.8 4.2c0.5 1.5 0.9 2.7 1 2.8 0 0.1-0.7 0.7-1.5 1.3-3.5 2.6-7.1 6.7-8.1 9.2l-0.5 1.2-2.7 0.1c-2.2 0-3 0.1-4.4 0.6l-1.7 0.6 0.1-0.6c0.7-2.9 5.3-9.2 8.9-12.3 2.1-1.7 7.5-5.6 7.8-5.5 0.1 0 0.6 1.2 1.1 2.6zm26-0.9c3.6 1.6 6.2 3.9 8.6 7.6 1.4 2.2 3.3 5.8 3.9 7.7l0.4 1.2-0.6 0.4c-0.4 0.2-1.3 0.9-2.1 1.6l-1.5 1.1-1.7-0.5c-1-0.2-2.7-0.5-3.7-0.6-1.1-0.1-2-0.2-2-0.3 0-0.1-0.2-1.5-0.5-3-0.7-4-1.5-7.2-3.1-12.2-0.8-2.3-1.4-4.3-1.4-4.4 0-0.2 1.6 0.4 3.7 1.4zm22.6-0.3c4.5 1 7.9 3.7 9.8 7.5 1.6 3.3 2.9 8.7 2.9 12v1.4l-0.9-0.7c-0.5-0.4-1.6-1.2-2.4-1.7-1.5-1-1.5-1-2.2-2.9-1.6-5.1-4.8-9.3-8.5-11.1-1.6-0.8-2-0.9-4-1q-5-0.1-8.3 2.2c-0.4 0.4-0.5 0.3-1.8-1.2l-1.3-1.6 1.8-1.1c2.3-1.4 4.7-2.1 8-2.4 1.7-0.2 4.9 0.1 6.9 0.6zm42.8 3.9c0 2.1 0.1 4.7 0.1 5.8v2.1l-1.2 0.2c-1.9 0.5-5.8 2.1-7.9 3.3-2.1 1.3-4.5 3.4-5.7 5.1l-0.9 1.1-1.6-0.5-1.7-0.5 0.1-1.2c0.3-1.7 1.2-5 2-6.7 1.4-3 4-6.1 6.7-8.2 2.6-2 7.5-4.2 9.4-4.2 0.5 0 0.5 0.1 0.7 3.7zm-25.2-1.9c3 0.8 5.7 2.1 8.1 4.1 1.9 1.6 1.9 1.6 0.6 4-1.8 3-2.9 6.3-2.9 8.5 0 1.7 0 1.7-2.9 1.7-2.2 0-3.1 0.1-5 0.7-1.3 0.3-2.4 0.6-2.4 0.5-0.1 0 0-0.5 0.1-0.9 0.4-1.1 0.1-5.4-0.6-8.3-1-4-2.2-6.6-4.2-8.8-1.1-1.1-1.1-1 1.2-1.5 2.3-0.5 5.7-0.5 8 0zm77.8 2.4c-1.8 1.6-4.5 3.8-8.4 6.5-6.6 4.8-13.4 9.9-16.4 12.4-2.9 2.4-9.5 9-12.2 12.3-4.5 5.3-8.6 11.1-10.8 15.3-0.7 1.1-1.2 2-1.2 2 0 0 0-1.3 0.1-3l0.1-3 1.5-2.8c6-11.4 15.1-19.9 33.1-30.7 5.8-3.5 9.5-6 14.3-9.8 1.2-0.9 2.3-1.7 2.4-1.7 0 0-1.1 1.1-2.5 2.5zm-35.9-0.9c-0.7 0.9-2.4 2.8-3.9 4.4-1.4 1.6-3 3.3-3.4 3.9-1.6 1.9-3.4 4.4-4.6 6.1-1 1.5-1.1 1.6-1.1 0.9 0-0.9 1.9-3.7 4.8-7.1 2.3-2.7 9-9.6 9.3-9.6 0.1 0-0.4 0.6-1.1 1.4zm-139.2-0.5c3.9 1.3 8.5 5.1 12.1 10.1l1.1 1.5-0.4 1.4c-0.4 1.3-0.5 1.5-1.4 2.1-2.1 1.4-4.2 4.2-5.3 7.4l-0.7 1.8-1.1-1.2c-2.1-2.2-5.5-4.3-9-5.6l-1.1-0.4v-2.3c0-2.2 0.2-7.7 0.6-13.1l0.2-2.5 1.7 0.2c1 0.1 2.4 0.4 3.3 0.6zm-57.5 15.4c5.3 8.4 10.7 14.1 18.3 19.4 1.1 0.8 2 1.4 2 1.5 0 0.1-0.8-0.4-1.7-0.9-1-0.5-3.5-1.8-5.6-2.9-3.7-1.8-3.9-2-7.7-5.4-7.5-6.7-10.9-11.5-11.9-17-0.2-1.1-1-8-1-8.7 0-0.2 1.3 2.2 2.9 5.3 1.5 3.1 3.6 6.9 4.7 8.7zm180.2-1.8c0 2.3 0.1 6.2 0.2 8.8v4.7l-1.6-0.6c-0.9-0.3-2.4-0.7-3.4-0.7-1.6-0.2-1.7-0.2-2.2-1-0.9-1.5-3.6-3.6-6.6-5.2l-1.7-1 1.9-1.8c2.2-2.1 4.2-3.5 7-4.9 1.9-0.9 5.5-2.3 6-2.4 0.2 0 0.3 1.3 0.4 4.1zm-41.5-0.1c2 0.4 4.1 1.1 6.6 2.4 1.8 0.9 4.4 2.6 4.4 2.9 0 0.1-0.7 0.6-1.6 1.1-2.4 1.3-5.9 5-7.1 7.1-1 2-1.6 4.1-1.6 5.7v1.3l-1.2-0.4c-0.7-0.1-2.1-0.4-3.2-0.4l-1.9-0.2v-1.5c-0.1-2.9-1.6-6.9-3.6-9.6-1.1-1.6-3.2-3.3-4.6-4.1-0.5-0.2-0.9-0.5-0.9-0.5 0-0.2 2.9-1.9 4.2-2.6 2.9-1.5 7-2 10.5-1.2zm-59 0.3c3.5 0.6 7.2 2.2 10.3 4.5l1.1 0.8-1 0.6c-2.2 1.3-4.5 3.5-6.4 6.2-1.3 1.9-2.5 4.4-2.5 5.1 0 0.4-0.2 0.5-1.7 0.3-1.5-0.1-1.9-0.3-2.9-1-1.9-1.4-4-2.6-5.9-3.4-2-0.8-5.4-1.7-6.5-1.7-0.6 0-0.7 0-0.5-0.8 0.3-1.2 1.7-4.1 2.8-5.7 2.8-3.9 7.8-5.7 13.2-4.9zm133.7 4.7c-3.9 3.6-10.5 10.4-13.6 13.9-8.5 9.9-14.9 20-16.2 25.8-0.1 0.2-0.1-0.5-0.1-1.5 0-2.3 0.3-3.2 2.1-6.5 4-7.2 11.4-16.6 18.2-23.4 3.1-3.1 11.5-10.6 12-10.6 0 0-1 1-2.4 2.3zm-94.4-1.6c5.3 1.2 8.9 3.8 11.2 8.1 0.9 1.8 1.9 4.9 2.2 6.9l0.2 1.2h-1.2c-0.6 0-1.3 0-1.6 0.1-0.4 0.1-0.6-0.1-0.9-1-1-2.3-4.5-4.9-7.7-5.6-1.3-0.2-4.6-0.2-5.3 0.1-0.4 0.2-0.4 0.1-0.1-1.3 0.3-1 0.3-2.6 0.3-5.2-0.1-4.4-0.4-4 2.9-3.3zm-64.4 2.3c1.2 0.6 2.7 1.4 3.4 1.9 1.5 0.9 4.6 3.6 4.6 3.9 0 0.1-0.6 0.2-1.4 0.2-2.6 0-5.6 1.1-8.2 3l-1.6 1.1v-11.5l0.6 0.2c0.3 0.1 1.5 0.6 2.6 1.2zm45 0.8l1.3 2.1-1.2 0.2c-1.6 0.2-4.4 1.2-6.5 2.2-4.1 2-7.1 4.9-8.1 7.9-0.1 0.3-0.2 0.3-1.7-0.2-0.8-0.2-1.6-0.6-1.7-0.6-0.2-0.2 0.8-2.2 2.2-4.3 2.2-3.5 5.3-6.3 8.1-7.5 0.9-0.4 5.6-1.8 6.3-1.9 0.1 0 0.7 0.9 1.3 2.1zm63-1c3.3 1.1 7.3 3.5 9.4 5.6l1.1 1.1h-1c-1.6 0-4.6 0.7-6.5 1.5-4.8 2.1-8.1 5.6-9.6 10.1-0.4 1.1-0.5 1.3-1 1.1-1-0.3-4.3-0.4-5.6-0.2-1.3 0.2-1.3 0.2-2.2-0.6-1-0.8-4.6-2.7-6.1-3.2-1.1-0.3-1.2-0.6-0.6-3 1.5-6.3 6.9-11.1 14.5-12.9 1.3-0.3 6 0 7.6 0.5zm-167.8 3.8q0.5 0.5 0 0.1c-0.4-0.3-0.5-0.5-0.4-0.5 0.1 0 0.3 0.2 0.4 0.4zm3.5 3.2c2.2 1.8 5 3.5 12.7 7.4 10 5.2 15.5 8.4 17.7 10.5l1 0.9-1-0.6c-0.5-0.3-1.2-0.7-1.5-0.9-1.3-0.9-6.9-3.9-12.9-7-10-5.3-13.8-7.7-17.4-11.1-1.9-1.9-1.5-1.6 1.4 0.8zm69 0.8c2.3 0.5 6.1 2.2 8.2 3.6 1.3 0.8 1.3 0.8-0.8 1.1-2.7 0.5-6.3 2.4-8.6 4.8-1.6 1.6-3.2 3.8-3.9 5.2-0.2 0.5-0.4 1-0.4 1 0 0.1-0.9-0.1-1.9-0.4-2.8-0.7-5-0.6-8.2 0.4l-0.5 0.1v-11.9l0.9-0.7c4.1-3.7 9.1-4.7 15.2-3.2zm111.2 0.5c0.8 0.3 1.5 0.6 1.5 0.6 0.3 0.3 0.3 15.4 0 15.2-0.1-0.1-0.7-0.5-1.3-0.9-3.5-2.7-8.4-3.8-12.7-2.7-1.1 0.2-2.7 0.8-3.6 1.2l-1.6 0.7-0.8-0.6c-0.4-0.2-1.4-0.9-2.3-1.3l-1.6-0.8 1-1.9c1.6-3.2 3.4-5.3 6.3-7.2 1.6-1 4.9-2.4 6.8-2.7 2-0.4 6.7-0.1 8.3 0.4zm-97.8 5.2c2.3 0.4 5 1.5 7.3 3 0.9 0.7 1.7 1.2 1.7 1.2 0 0.1-0.4 0.4-0.9 0.9l-1 0.7-1.3-0.5c-2.7-1-6.9-1.1-10.5-0.3-4.3 1-8.7 4.2-10 7.2 0 0.1-3.6-1.9-3.6-2.1 0-0.4 1.5-2.7 2.7-4 1.9-2.2 3.8-3.8 6-4.8 3.1-1.6 6-2 9.6-1.3zm57.8 2.3c3 0.8 5.7 1.9 7.5 2.9l1.4 0.9-1.8 0.7c-5 1.7-9.9 6.1-12.3 10.9-0.9 1.9-1.2 2.1-1.7 1.5-0.6-0.7-3.8-2.7-5.6-3.6-2.5-1.1-5.3-1.8-8-1.8h-2.2l0.2-1.4c0.2-1.2 0.5-1.7 2-3.5 3.4-4.1 6.6-6.2 11.2-7 2.5-0.5 6.4-0.3 9.3 0.4zm-32.7 0.6l2.1 0.6 0.4 1.4c0.5 1.2 0.5 1.5 0.1 9.7-0.2 4.6-0.4 8.8-0.5 9.2l-0.1 0.7-2.8-1.2c-4.3-1.8-6.8-2.4-9.7-2.2-1.3 0.1-3.1 0.3-4 0.6l-1.6 0.5-1.1-1c-1.3-1.1-4.4-3.2-5.1-3.4-0.5-0.2-0.5-0.4 0.2-2.6 1.5-4.9 5-9.6 8.2-11.2 3-1.5 5.4-2 9-1.9 2.2 0.1 3.1 0.2 4.9 0.8zm49.6 4.3c2 0.6 4.1 2 5.5 3.6 1.3 1.4 3.3 5.3 4.2 8.2 0.6 1.5 0.5 2.4 0 1.4-0.2-0.2-1-1.2-1.9-2.2-1.2-1.2-2.2-1.9-3.5-2.6-4.3-2.2-7.9-2.5-11.5-0.7-2.6 1.3-5.7 4.8-5.7 6.7 0 0.5 0 0.5-3.1 0.7-1.7 0.1-3.9 0.3-4.7 0.5-0.9 0.2-1.8 0.4-2.2 0.5l-0.6 0.1 1.1-2.6c1.5-3.4 2.9-5.6 5.2-7.9 2.8-2.9 6.3-5 9.5-5.8 2.1-0.5 5.9-0.4 7.7 0.1zm17.5 0.9c2.5 0.6 6.7 2.9 7.2 3.9 0.1 0.2 0.1 1.2 0.1 2.2v1.9l-2 0.6c-2.9 0.9-5.3 2.3-6.9 3.9l-1.4 1.3-1.3-0.4c-0.7-0.3-1.5-0.5-1.7-0.5-0.4 0-0.5-0.2-1.1-2.2-0.6-2.6-2-5.7-3.3-7.7-0.6-1-1.2-1.8-1.2-1.8 0-0.1 3.2-1 4.7-1.3 1.6-0.4 5.3-0.3 6.9 0.1zm-113.1 2.4c2.1 0.6 4.3 1.6 7 3.4l2 1.3-2 0.7c-4.3 1.4-9.4 5.7-11.9 9.9-0.6 1.1-0.7 1.1-1.4 0.9-0.4-0.1-1-0.2-1.4-0.2h-0.6l-0.1-7.7c-0.1-4.2 0-7.7 0.1-7.8 0.3-0.4 2.5-0.9 4.5-0.9 1.3 0 2.7 0.1 3.8 0.4zm59.8 4.4c3.9 0.6 8 2.4 11.7 5.1l0.7 0.6-0.5 1.6-0.5 1.6-1.5 0.6c-4.7 1.8-8.9 5.6-11 9.6-0.6 1.1-0.6 1.1-2.2 1.5-1 0.1-2.4 0.5-3.1 0.8-0.8 0.4-1.5 0.6-1.5 0.5-0.1 0 0-1.4 0.1-3 0.2-1.6 0.3-4.6 0.4-6.6 0.1-2.9 0.3-3.9 0.6-4.6 0.7-1.3 1.6-3.7 2.1-5.8 0.3-1 0.6-2 0.7-2.2 0.1-0.3 0.4-0.3 4 0.3zm-44.7 1.1c3.9 0.5 8.2 2.3 12.3 4.9 1.9 1.3 2.2 1.7 0.9 1.1-2.3-0.9-7.7-0.5-11.7 1-4.3 1.6-9.1 5.4-11.4 9l-1 1.6-0.8-1c-1.3-1.7-3.2-3.2-5.4-4.3-1.2-0.6-2.3-1.1-2.5-1.1-0.5 0-0.3-0.6 0.9-2.2 3.5-4.6 9.3-8.3 14-9 2.2-0.2 2.3-0.2 4.7 0zm92.6 6.1c3.2 0.9 6.7 3.5 8.3 6.1 0.4 0.7 0.9 2 1.1 2.9 0.5 2 0.3 3.5-1.1 6.2l-1 2-1.5-0.5c-2.1-0.6-5.3-0.5-7.3 0.3-1.7 0.6-3.7 1.8-5.2 3.1l-1.1 0.9-1.3-0.9c-2.5-2-6.1-3.3-9.8-3.5l-2-0.2 0.1-0.6c0.4-1.5 2.2-5.2 3.7-7.4 2.6-4 6.1-7 9.5-8.2 2.2-0.8 5.2-0.9 7.6-0.2zm-67 0.4c1.2 0.3 3.3 1 4.7 1.6l2.5 0.9 0.1 1v1.1h-3.4c-4.4 0-7.3 0.8-11.1 3-4.4 2.5-7.5 5.8-9.7 10.1 0 0.1-0.7-0.5-1.5-1.1-0.8-0.7-2.5-1.7-3.6-2.2-1.1-0.6-2.1-1.1-2.1-1.3 0-1.2 5.2-7.3 8.3-9.6 5-3.6 10.4-4.8 15.8-3.5zm46 1.2c2.3 0.4 6.3 1.7 6.3 2 0 0-0.7 0.9-1.5 1.9-0.7 1-1.8 2.5-2.3 3.4-1.1 1.7-2.7 5.3-2.7 5.8q0 0.8-0.9-0.2c-2.6-2.8-9.4-4.5-15.1-3.9-3.4 0.3-8.6 1.6-8.7 2.1-0.1 0.2-0.7 0.2-1.5 0.2l-1.3-0.1 1.1-1.6c3.5-5.3 10-9.2 17-10.1 2.4-0.4 6.6-0.1 9.6 0.5zm-92.6 3.9c3.4 0.8 6.5 2.8 9 5.6l1.2 1.5-1.6 0.3c-3.2 0.6-8.4 2.7-10.4 4.1-0.4 0.3-0.7 0.5-0.8 0.4 0 0 0-2.8 0.1-6.2 0.1-7-0.1-6.4 2.5-5.7zm-6.3 1.3c0.2 0.2 0.2 0.4 0.2 0.4-0.1 0-0.3-0.2-0.4-0.4-0.2-0.3-0.2-0.5-0.2-0.5 0.1 0 0.3 0.2 0.4 0.5zm132.8 6.4c0 2 0.1 4.9 0.1 6.3l0.2 2.7-2-2c-1.1-1.1-2.4-2.1-2.8-2.4l-0.8-0.4 0.8-1.1c1-1.5 1.8-3.3 2-4.6 0.1-1.1 0.2-1.2 1.1-1.6 0.6-0.2 1.1-0.5 1.2-0.5 0.1 0 0.2 1.7 0.2 3.6zm-108.6 0.3c3.8 0.7 6.5 1.7 9.9 3.9l1.3 0.9-2.3 1.1c-3.3 1.7-7.5 5.2-8.8 7.5-0.2 0.3-0.4 0.3-2.1 0.1q-5.4-0.9-11 2.3c-2.2 1.3-4.7 3.3-5.8 4.7-0.7 0.8-0.8 0.9-1.6 0.9-0.5-0.1-1.3 0.1-1.7 0.2l-1 0.4 0.2-0.7c0.5-2.5 1.6-10 1.8-12.6 0.2-1.6 0.4-3.2 0.6-3.6 0.6-1.3 7.7-4.3 11.9-5 2.6-0.5 6-0.5 8.6-0.1zm55.2 1.4c2.9 1 5.6 2.5 7.4 4.1l1.4 1.3-2 2-2 2.1-0.7-0.6c-0.3-0.3-1.5-1-2.6-1.6-5.2-2.4-10.5-2.7-15.6-1-0.9 0.3-1.7 0.5-1.7 0.4-0.1 0 0-1.3 0.1-2.8 0.2-3 0.1-2.8 2.9-3.8 2.5-0.8 4.3-1.1 7.4-1 2.7 0.1 3.2 0.1 5.4 0.9zm46.5 2.8c1.8 0.5 3.6 1.8 5.8 4.1l1.5 1.5 0.2 2.2c0.2 1.3 0.4 2.7 0.5 3.1 0.1 0.7 0.1 0.7-0.7 0.7-0.5 0-1.4-0.3-2.1-0.6-3.6-1.9-7.7-1.3-10.6 1.5-2.2 2.3-3.9 5.7-3.9 8.1v1.2l-1.3-0.8c-1.2-0.8-4.6-2.2-6-2.4-1.2-0.2-1.4-0.9-1.1-3.5 1-7.9 4.8-13.1 11-15.1 1.8-0.6 4.8-0.6 6.7 0zm-21.1 0.4c1.6 0.4 5.4 2.1 6.3 2.9l0.6 0.5-0.7 1c-0.4 0.6-0.9 1.4-1.1 1.7-0.4 0.7-0.5 0.8-2.7 1.1-4 0.5-6.4 1.7-9 4.5-0.9 1-1.8 2.2-2.1 2.8-0.3 0.6-0.5 1.2-0.6 1.2 0 0.1-0.5-0.1-1-0.4-2.4-1.2-4.4-1.6-9-1.6h-4.3l0.3-0.9c0.9-2.3 3.5-6.1 5.9-8.3 2.6-2.5 5.4-4 8.8-4.8 1.9-0.4 6.6-0.3 8.6 0.3zm-58.1 0.8c2.5 0.5 5.1 1.4 6.9 2.3l1.2 0.6-0.7 0.8c-0.4 0.5-1.1 1.6-1.6 2.4l-1 1.4-0.7-0.4c-2.8-1.8-9.7-2-14.8-0.6-2.5 0.7-5.9 2.3-6.7 3.1l-0.7 0.6-1.5-0.7c-0.8-0.4-1.7-0.7-1.9-0.8-0.6-0.2-0.3-0.7 1.4-2.5 3-3 6.9-5.4 10.3-6.2 2.5-0.6 6.7-0.6 9.8 0zm12.3 2.4c-0.1 1.1-0.2 2.3-0.2 2.7 0 0.7-0.3 1.2-1.6 2.5-1.7 1.9-3.3 4.2-3.6 5.1-0.1 0.4-0.6 0.7-2.2 1.4l-2.1 0.8 0.6-1.6c0.7-1.9 2.8-5.7 4.3-7.8 1.1-1.5 4.7-5.4 4.9-5.3 0.1 0.1 0 1-0.1 2.2zm-35.3 6.9c5 1.1 10 4.9 14.2 10.5 1.1 1.5 2.1 2.8 2.2 2.9 0 0.1-0.2 0.9-0.6 1.7-0.4 0.7-0.7 1.6-0.7 2 0 0.6-0.1 0.7-0.4 0.6-1.9-0.7-6.2-1-8.3-0.4-0.7 0.2-1.9 0.7-2.7 1.2l-1.5 1-0.9-0.8c-2.1-2-4.3-2.8-9.3-3.6-3.8-0.7-5.8-1.4-6.7-2.2-0.3-0.3-0.9-1.4-1.3-2.4-0.5-1.2-1.1-2.2-1.6-2.7l-0.8-0.9 1.6-1.5c5-4.8 11.1-6.8 16.8-5.4zm110.2 2.9c0.7 0.6 0.7 1.9 0 6.9-0.2 2-0.7 6.2-1 9.4-0.7 6.7-1.4 11.5-2.2 16.7-2.7 17.3-5.9 26.4-14 40.6-3.1 5.4-4.8 8.6-5.6 10.9-0.3 0.8-0.6 1.5-0.7 1.4-0.1 0-0.4-0.6-0.8-1.4-0.8-1.6-1.9-3-2.2-2.7-0.1 0.1 0.2 1.6 0.6 3.3 0.8 2.9 0.9 3.4 0.8 6.3 0 3.5-0.4 5.7-1.6 8.4l-0.7 1.4-0.4-0.6c-0.4-0.5-0.7-0.6-1.6-0.6-2 0-3.3 1.5-3 3.5 0.2 1.4 0.5 1.7 1.2 1.7h0.7l-0.7 0.7c-1.6 1.6-6 4.1-6.6 3.7-0.6-0.4 0.6-8 1.7-11.5 0.9-2.8 3.2-7.7 5.2-10.7 2.4-3.7 4.3-7 4.3-7.2 0-1-3.2 2.2-5.1 5.1-2.7 4-5.3 9.8-6.3 13.6-1.1 4.4-1.3 9.7-0.6 11.5 0.3 0.8 0.4 0.8 0.7 0.5 0.1-0.2 0.7-0.3 1.4-0.4 1.3 0 4.2-1.3 5.6-2.4 0.5-0.4 1-0.7 1-0.7 0 0.4-3 8.7-3.5 10-1.1 2.2-2.9 5.5-5.1 8.9-2.8 4.3-9.2 13.6-11 15.8-5.5 7.1-12.8 11.8-19.9 12.8-2.7 0.4-12.3 0.4-14.2 0.1-3.6-0.8-5.1-1.4-8.6-3.8-6.6-4.6-9.7-7.8-11.7-11.9-0.6-1.3-2.3-4.8-3.8-7.8-3.2-6.7-3.9-8.9-5.5-16.3-1.2-5.9-1.9-8.3-2.8-10.2q-0.5-1-0.2-0.9c1.4 0.6 3.6 1.2 4.2 1.1 0.7-0.1 0.7-0.1 0.7 1.1 0 1.3 0.5 1.4 0.9 0.1 0.4-1 0.4-6.3 0.1-9.1-0.6-4.7-2.2-9.6-4.1-12.6-1.1-1.6-3.5-4.1-5.5-5.6-2.3-1.7-2.2-1.2 0.3 1.8 2.4 2.9 3.5 4.5 4.6 6.6 2 4.1 3.1 8.8 3.6 15.5l0.1 1.5-1-0.4c-1.2-0.4-4-2-4-2.2 0-0.1 0.2-0.2 0.4-0.2 0.2 0 0.6-0.3 0.8-0.5 0.5-0.5 0.5-0.7 0.4-1.8-0.2-1.5-0.7-2.6-1.3-3-0.8-0.4-1.9-0.3-2.6 0.4-0.5 0.6-0.6 0.8-0.5 1.8l0.2 1.3-0.7-0.9c-1.3-1.4-2.6-3.8-3.3-6-1.5-4.4-1.5-7.8-0.3-11.9 0.8-2.5 0.9-3.3 0.5-3.6-0.2-0.1-0.6 0.2-1 0.5l-0.7 0.7v-1c0-0.8 0.1-1 0.6-1.2 1-0.4 2.7-0.3 3.7 0.2 1.8 0.9 4.7 4.5 7.7 9.6 0.7 1.2 1.4 1.7 1.4 1.1 0-0.9-4.1-7-6.3-9.4-2.5-2.7-4.7-3.5-6.4-2.3-0.7 0.4-0.9 0.4-0.8-0.3 0.1-0.8 2.4-1.9 3.5-1.7 2.1 0.4 5.2 3.6 8.7 8.8q2.5 3.8 1.6 0.6c-0.9-2.9-3.9-7.7-6.1-9.6-2.8-2.4-5-2.6-7.2-0.5-0.8 0.6-1.1 0.8-1.1 0.5 0-0.2-1.3-4.4-2.9-9.4-3.1-9.3-4.3-13.5-5.3-19-2.1-11.8-3.1-23-2.5-28.3 0.2-1.9 0.4-2.6 0.7-2.8 0.3-0.2 0.7-1.1 1-2.5 0.3-1.2 0.7-2.5 0.8-2.8 0.6-1.1 2.3-2.4 3.1-2.4 0.5 0 2.2 1.6 3.3 3.1 1.5 2.3 2.7 2.9 7.5 3.8 5.1 1 7.1 1.9 9.1 3.9 1.5 1.5 2 2.6 2.6 5.4 0.3 1.3 0.6 2.7 0.8 3.2 0.5 1.1 0.5 1.1-0.3 1.1-0.7 0-3.9 1.4-4.2 1.9q-0.3 0.5 2.4 0c2.4-0.5 5.6 0.6 8.7 3 1.9 1.5 2.4 1.4 1.7-0.2-0.8-1.8-3.8-4-6.1-4.6-0.6-0.1-0.6-0.2-0.6-1.7-0.1-2.3-0.6-5.1-1.3-6.5-0.3-0.7-0.6-1.3-0.6-1.4 0-0.1 0.7-0.4 1.6-0.8 1.3-0.4 2-0.5 4.2-0.5 2.2 0 2.9 0.1 4.5 0.6 4.3 1.5 8.3 4.7 12.4 9.9 1.9 2.3 2.4 2.7 2.1 1.4-0.1-0.4-0.2-0.9-0.2-1.1 0-0.5 3.8-2.4 6.9-3.5 2.5-0.9 2.7-0.9 5.7-0.9 5.2 0 6.9 0.9 12.2 6.2 3.1 3.3 4.1 4 3.4 2.6-0.1-0.3-1-1.7-2-3.1-1-1.4-1.8-2.6-1.8-2.6 0-0.1 0.4-0.2 0.9-0.4 0.6-0.2 2.3-0.3 5.3-0.3 3.8 0 5.6 0.1 8 0.7 0.3 0.1 0.5 0 0.5-0.1 0-0.3-2.3-0.9-4.6-1.2-3.5-0.5-8.4-0.2-9.8 0.5-0.7 0.3-0.7 0.3-2.3-1.1l-1.6-1.5 1.1-1c3.1-2.5 5.9-3.6 9.7-3.7 3.5 0 8.4 0.5 10.6 1.2 1.9 0.6 5.3 2.5 8.1 4.6l1.7 1.2 1.6-0.5c2.2-0.6 5.3-2.7 8-5.4 1.2-1.2 3.7-4.2 5.9-7.2 2.2-2.9 4.7-6 5.9-7.2 1.8-1.8 2.4-2.2 4.8-3.3 1.5-0.8 2.9-1.4 3.2-1.4 0.4 0 0.9 0.3 1.2 0.6zm-72.5 14.3c0.1 1.8 0.3 3.9 0.4 4.5l0.1 1.2-1 0.2c-0.6 0.1-1.7 0.4-2.5 0.7-0.9 0.2-1.6 0.4-1.7 0.3-0.1-0.1 0.2-1.1 0.6-2.3 1-3.1 2.7-12 3.3-17.9 0.2-1.4 0.2-0.5 0.4 4.1 0.1 3.2 0.3 7.4 0.4 9.2zm-3.7-10.7l-0.2 2.6-1.9 0.2c-4.6 0.3-10.1 3.3-13.4 7.2-0.6 0.8-1.2 1.6-1.3 1.8-0.1 0.2-0.3 0.2-1-0.1-1-0.3-1-0.5 0-2.2 0.6-1 0.8-1.3 2.5-3.4 3.2-3.9 7.9-6.9 13.4-8.2 1.2-0.4 2.2-0.6 2.2-0.6 0 0.1-0.1 1.2-0.3 2.7zm6.9-1.7c1.6 0.9 4.4 3.3 4.9 4.3 0.3 0.6 0.3 0.7-0.5 1.5-0.5 0.5-1.1 1.2-1.5 1.6l-0.6 0.8-0.5-0.7c-0.2-0.4-1.2-1.1-2-1.6l-1.6-0.9v-2.9c0-1.6 0.1-2.9 0.2-2.9 0.1 0 0.8 0.4 1.6 0.8zm26.7 0.3c2 0.6 4.6 1.8 5.7 2.6l0.8 0.6-1.6 0.8-1.6 0.7-1.7-0.4c-1.3-0.4-2.4-0.5-5.3-0.5-3.2 0-4 0.1-6.1 0.7-6.5 1.6-12 5.7-14.6 10.8-0.6 1-1 2-1 2.2 0 0.3-0.2 0.3-1.1 0.2-0.6 0-1.2-0.1-1.2-0.1-0.1-0.1 1.1-3.6 1.7-5 1.2-2.8 3.7-6 6.2-8.2 2.5-2.2 6.8-4.1 10.4-4.8 2-0.3 7.4-0.1 9.4 0.4zm17.9 3.9c2.2 0.6 4.7 1.6 6.5 2.6 0.7 0.4 1.3 0.8 1.3 0.8 0.1 0.1-3 4-4.7 5.7-1.6 1.9-4.4 4.3-7 6.3l-2.2 1.7-1.6-1.6c-3.3-3.1-5-3.8-10-4.6-3.3-0.5-5.6-0.9-5.6-1.1 0-0.3 2.1-2.5 3.8-4 4.1-3.7 7.5-5.6 11.4-6.3 1.7-0.3 5.8-0.1 8.1 0.5z"/>
		</g>
	</g>
	<path id="Layer" class="s0" d="m134.1 282.6c0 0.6 3.6 10 5.6 14.8 3.8 8.8 7.6 15.3 14 23.6 2.1 2.8 6.7 7.6 7.2 7.6 0.2 0-0.5-0.9-1.5-2.1-2.2-2.5-4.8-6.1-8.7-12-5.6-8.5-8-13.2-15.2-29.7-1-2.3-1.4-2.9-1.4-2.2z"/>
	<path id="Layer" class="s0" d="m309.7 655.2c-1.2 1.1-3.2 3-4.5 4.2-6.7 5.8-9.1 8.2-8.4 8.2 0.2 0 3.9-3 9.1-7.5 1.1-0.9 2.8-2.5 3.7-3.5 1-0.9 1.7-1.6 1.7-1.5 0 0.2-0.1 1.6-0.3 3.3-0.2 1.6-0.5 6.3-0.6 10.5-0.3 8.1-0.7 12.9-1.5 17-1 5.5-2.1 9.1-3.7 12.2-1.6 3.2-1.2 3.8 0.5 0.9 1.7-2.7 3.1-7.1 4.2-12.9 0.8-4.5 1.2-8.6 1.4-16.4 0.2-6.6 0.5-10.9 1.1-15.4 0.2-1 0.1-1.2-0.3-1.2-0.2 0-1.3 0.9-2.4 2.1z"/>
	<path id="Layer" class="s0" d="m266.1 660.3c-3.3 0.8-6.4 2.1-6.6 2.8-0.1 0.3 0 0.3 0.3 0.1 3.6-1.5 6-2 9.5-2 3.2 0 4.9 0.4 9.6 1.9 2 0.7 3.7 1.2 3.8 1.1 0.1-0.1 0-0.2-0.2-0.4-0.7-0.4-6.8-2.8-8.2-3.2-1.7-0.4-6.7-0.6-8.2-0.3z"/>
	<path id="Layer" class="s0" d="m241.5 666.5c-1.8 0.3-2.3 0.4-2.3 0.7 0 0.2 0.7 0.2 2 0.1 3.9-0.4 8 0.6 12.5 2.7 1.1 0.5 2.6 1.5 3.3 2.1 1.3 1.1 1.8 1.2 1.3 0.4-1.1-2.1-6.9-5.1-11.2-6q-2.8-0.5-5.6 0z"/>
	<path id="Layer" class="s0" d="m218.8 685c-0.8 0.3-0.4 0.6 1.3 0.8 1.9 0.3 3.5 0.8 4.7 1.6 1.6 1 3.7 3.3 4.5 4.9 0.4 0.8 0.8 1.5 0.9 1.5 0.8 0 0.1-2.9-1-4.5-1-1.5-2.8-3.2-4.2-3.9-0.9-0.4-1.5-0.5-3.4-0.6-1.2 0-2.5 0.1-2.8 0.2z"/>
	<path id="Layer" class="s0" d="m238.1 693.2c-2.3 0.5-3.5 1.2-5.3 2.9-1.5 1.5-3.3 3.6-3.3 4 0 0.4 0.7-0.1 2.4-1.7 1.3-1.2 2.7-2.2 3.8-2.8 1.6-0.9 1.9-1 4-1 3.9-0.2 8.7 1.1 11.7 3.1 1.6 1 2.2 1 1.3 0-2.6-3.2-10.2-5.5-14.6-4.5z"/>
	<path id="Layer" class="s0" d="m200.6 701.8c0 0.1 1.2 1.5 2.7 3.2 1.6 1.7 3.6 4.1 4.6 5.4 1.9 2.5 2.6 3 2.6 1.7 0-3.2-3.7-7.6-8.3-10-1.1-0.5-1.3-0.6-1.6-0.3z"/>
	<path id="Layer" class="s0" d="m293.8 702.3c-0.5 1.4-0.9 5.8-0.6 6.9 0.4 1.2 1.1 1.4 1.5 0.4 0.4-1.2 0.1-7.2-0.5-7.8-0.1-0.1-0.3 0.1-0.4 0.5z"/>
	<path id="Layer" class="s0" d="m195.8 704.1c0.4 2 0.9 3.2 1.6 3.8 0.7 0.6 1.4 0.6 1.4 0q0-0.9-1.5-3.1c-1.1-1.7-1.7-2-1.5-0.7z"/>
	<path id="Layer" class="s0" d="m289.7 704.5c-0.4 1.1-1.7 5.6-1.7 6.1 0 0.6 0.2 0.7 0.7 0.3 0.4-0.2 1.5-5.5 1.4-6.4l-0.1-0.6z"/>
	<path id="Layer" class="s0" d="m193.4 705.8c0.2 1.9 1.2 3.3 1.9 2.8 0.3-0.2 0.2-0.6-0.7-2.4-1-2.1-1.4-2.3-1.2-0.4z"/>
	<path id="Layer" class="s0" d="m253 707c-1.1 0.4-2.4 1.2-3.8 2.5-1.8 1.6-1.5 2 0.5 0.6 1.9-1.4 3.7-2.1 4.9-1.9 2.8 0.3 5.7 3 7 6.3 0.4 1.1 0.8 0.6 0.6-0.7-0.3-2.4-2.4-5.2-4.9-6.5-1.3-0.6-3.1-0.8-4.3-0.3z"/>
	<path id="Layer" class="s0" d="m226.5 709c0.1 0.1 0.8 0.4 1.6 0.7 4.9 1.8 7.4 4 9 8 0.3 0.9 0.7 1.5 0.8 1.5 0.2-0.1 0.3-0.6 0.3-1.3 0-2.5-2.5-6.1-5.1-7.5-0.6-0.4-1.9-0.9-2.9-1.1-1.8-0.5-3.9-0.7-3.7-0.3z"/>
	<path id="Layer" class="s0" d="m288 714.6c-2.1 1.3-5.2 4.3-6.7 6.6-1.4 2.1-4.3 7.7-5.9 11.3-1.9 4.7-1.5 4.8 1 0.2 2.6-4.5 5.5-9.5 6.7-11.1 1-1.3 3.3-3.7 5.7-5.9 1.3-1.2 1.7-1.9 1-1.9-0.1 0-0.9 0.4-1.8 0.8z"/>
	<path id="Layer" class="s0" d="m291.9 715.3c-0.3 0.2-1.1 1.3-1.9 2.4-0.7 1.2-2.5 3.3-3.8 4.7-3.1 3.2-5.3 6.5-6.8 10.2-1.3 3.4-2.1 8.3-1.5 10.2q0.4 1.6 0.8-0.9c0.5-2.5 2.3-7.9 3.7-10.8 1.8-3.6 3.1-5.5 5.4-8 1-1.1 2.6-3.1 3.3-4.3 1.1-1.6 1.6-2.2 2-2.2 0.5 0 2 1.5 3.2 3.3 0.4 0.7 0.9 1.2 1 1.2 0.7 0-0.4-2.9-1.7-4.5-0.7-0.9-2-1.7-2.8-1.7-0.2 0-0.6 0.2-0.9 0.4z"/>
	<path id="Layer" class="s0" d="m213.9 718.4c-0.2 0.4 0.3 6.4 0.6 7.6 0.6 2.1 1.5 2.9 1.8 1.6 0.2-0.7 0-3-0.5-4.9-1.1-4.2-1.6-5.3-1.9-4.3z"/>
	<path id="Layer" class="s0" d="m210.7 729.7c0 0.2 0.2 2.1 0.4 4.2 0.2 2 0.4 5.3 0.5 7.2 0.2 2.8 0.2 3.5 0.5 3.5 1.3 0 1.5-5.4 0.4-10.3-0.3-1.7-0.8-3.4-0.9-3.8-0.3-0.9-0.9-1.4-0.9-0.8z"/>
	<path id="Layer" class="s0" d="m274.1 740.8c-0.4 0.7-0.9 5.5-0.9 8.6 0 3.2 0 3.6 0.6 5.3 1.2 3.6 3.2 5.9 5 5.9 0.7 0 1.4-0.5 0.9-0.6-0.9-0.4-2-1.8-3-3.8-1.6-3.4-1.8-4.5-1.9-10.2-0.2-4.6-0.3-5.8-0.7-5.2z"/>
	<path id="Layer" class="s0" d="m277.5 745.6c-0.5 0.4 0.4 5.7 1.1 6.8 0.5 0.8 1.5 1.2 1.9 0.8 0.5-0.5-0.2-3.5-1.1-5.4-0.7-1.5-1.6-2.5-1.9-2.2z"/>
	<path id="Layer" class="s0" d="m210.5 748.6q-1.9 1.3-1.9 2.3c0 0.6 0 0.7 0.6 0.6 0.5 0 0.9-0.4 1.5-1.2 0.7-1.1 1-2.1 0.5-2.1-0.1 0-0.4 0.2-0.7 0.4z"/>
	<path id="Layer" class="s0" d="m285.3 752.1c-3.3 1.6-3.8 2.5-0.6 1.2 2.4-0.9 3.3-1.5 3.3-1.9 0-0.5-0.4-0.4-2.7 0.7z"/>
	<path id="Layer" class="s0" d="m284 757.2c-1.1 0.9-1.3 1.6-0.4 1.4 1.3-0.4 2-0.9 2.3-1.3 0.6-1.2-0.6-1.3-1.9-0.1z"/>
	<path id="Layer" class="s0" d="m277.6 761.8c-0.4 0.5-2.9 5.2-3.4 6.3-1.2 2.9 1.3-0.5 3.4-4.5 0.4-0.7 0.8-1.3 0.9-1.5 0.2-0.2 0.1-0.3-0.1-0.4-0.5-0.2-0.5-0.2-0.8 0.1z"/>
	<path id="Layer" class="s0" d="m210.2 763.3c0 0.4 0.5 0.7 0.6 0.6 0.2-0.2-0.1-0.9-0.4-0.9-0.1 0-0.2 0.1-0.2 0.3z"/>
	<path id="Layer" class="s0" d="m280.6 763.7c-0.3 0.5-1.7 2.4-3.1 4.3-1.3 1.9-4 5.4-6 7.9-1.9 2.5-3.9 5-4.4 5.6-1.4 1.8-3.9 4.3-5 5.1-0.6 0.4-2 1.2-3.1 1.8-3.6 1.9-2.4 2.3 1.3 0.5 2.7-1.3 4.8-3.3 8.5-8.2 1.7-2.2 4-5.3 5.2-6.8 1.9-2.5 5.3-7.3 7-9.9 0.7-1.2 0.4-1.4-0.4-0.3z"/>
	<path id="Layer" class="s0" d="m213.4 771.5c0.1 0.2 0.8 1.5 1.6 2.9 1.1 1.8 1.6 2.6 1.9 2.6 0.6 0 0.6-0.1-0.2-1.4-1.6-2.9-3.9-5.7-3.3-4.1z"/>
	<path id="Layer" class="s0" d="m262.4 776.3c-0.8 0.3-1.8 1-2.3 1.4-0.7 0.7-0.9 0.9-0.9 1.7 0 1.1 0.8 1.8 1.8 1.5 1.4-0.3 4.2-3.5 4.2-4.8q0-1.1-2.8 0.2z"/>
	<path id="Layer" class="s0" d="m225.4 783.1c0 0.5 1.5 2.7 2.1 3.1 0.7 0.5 1.3 0.1 1.1-0.7-0.2-0.9-3.2-3.1-3.2-2.4z"/>
	<path id="Layer" class="s0" d="m253 790.3c0 0.1 0.3 0.3 0.5 0.3 0.3 0 0.5-0.2 0.5-0.3 0-0.1-0.2-0.2-0.5-0.2-0.2 0-0.5 0.1-0.5 0.2z"/>
	<path id="Layer" class="s0" d="m230.7 790.8c0.3 0.9 5.8 1.6 10.6 1.3 3.3-0.1 9.8-1 10.2-1.3 0.3-0.4-1.1-0.3-4.4 0.2-5.4 0.7-13.8 0.5-16.2-0.4q-0.3-0.1-0.2 0.2z"/>
</svg>